<svg id="svg" version="1.1" xmlns="http://www.w3.org/2000/svg" xmlns:xlink="http://www.w3.org/1999/xlink" width="350" height="130" viewBox="0, 0, 1200,400"><g id="svgg"><path id="path0" d="M164.800 142.322 C 164.800 142.500,163.175 142.956,161.189 143.337 C 157.611 144.023,144.111 147.962,141.800 148.995 C 139.848 149.867,138.155 150.309,131.200 151.761 C 115.973 154.941,112.580 155.706,112.220 156.044 C 111.346 156.863,110.436 156.399,110.174 155.000 C 109.812 153.070,107.814 153.398,105.200 155.816 C 103.057 157.799,98.966 159.678,93.801 161.051 C 90.941 161.812,88.540 162.606,88.467 162.817 C 88.393 163.028,88.116 163.200,87.850 163.200 C 87.176 163.200,80.298 166.037,77.184 167.600 C 69.853 171.280,66.001 174.152,66.000 175.938 C 66.000 177.079,67.193 181.322,67.593 181.600 C 67.751 181.710,68.059 182.340,68.278 183.000 C 68.727 184.353,68.698 184.349,74.400 183.827 L 77.800 183.516 76.200 185.101 C 74.966 186.324,73.731 186.986,70.800 187.994 C 68.710 188.713,66.268 189.638,65.374 190.051 C 64.479 190.463,63.621 190.800,63.468 190.800 C 62.957 190.800,58.800 193.707,58.800 194.064 C 58.800 194.997,60.491 200.567,61.019 201.373 C 61.574 202.220,61.466 203.600,60.845 203.600 C 60.469 203.600,55.600 209.434,55.600 209.885 C 55.600 210.087,55.015 210.781,54.300 211.427 C 53.585 212.073,52.190 213.653,51.200 214.938 C 50.210 216.224,48.348 218.409,47.063 219.793 C 45.777 221.178,44.408 222.833,44.020 223.471 C 43.632 224.109,42.506 225.344,41.517 226.216 C 40.529 227.087,38.862 229.150,37.813 230.800 C 36.765 232.450,34.888 235.060,33.644 236.600 C 32.399 238.140,30.892 240.060,30.295 240.868 C 29.675 241.705,28.614 242.531,27.824 242.792 C 26.549 243.213,25.597 244.531,26.161 245.094 C 26.586 245.519,29.092 243.891,29.763 242.755 C 30.125 242.142,31.241 240.686,32.242 239.520 C 33.243 238.354,35.011 235.960,36.170 234.200 C 37.329 232.440,39.567 229.560,41.143 227.800 C 42.718 226.040,46.725 221.360,50.047 217.400 C 62.462 202.598,63.841 200.971,65.555 199.108 L 67.309 197.200 64.498 197.200 C 62.367 197.200,61.630 197.055,61.455 196.600 C 61.329 196.270,60.985 196.000,60.693 196.000 C 56.855 196.000,61.108 192.892,68.097 190.590 L 73.800 188.711 77.000 185.436 C 80.892 181.454,85.454 175.600,84.666 175.600 C 84.355 175.600,83.313 175.883,82.350 176.228 C 81.101 176.677,70.117 178.399,68.500 178.400 C 68.445 178.400,68.400 178.028,68.400 177.573 C 68.400 176.928,68.224 176.802,67.600 177.000 C 66.517 177.344,66.540 176.289,67.650 174.730 C 68.268 173.862,70.674 172.456,76.463 169.578 C 83.871 165.897,86.835 164.761,95.304 162.361 C 97.399 161.767,99.737 160.654,102.504 158.932 C 105.670 156.963,106.630 156.527,106.734 157.015 C 107.037 158.445,108.575 158.411,115.884 156.808 C 135.292 152.554,144.184 150.243,150.793 147.733 C 161.275 143.754,166.553 143.711,167.599 147.597 C 167.990 149.050,169.133 150.578,170.060 150.887 C 170.448 151.016,170.401 151.482,169.853 152.916 C 168.659 156.043,167.457 156.975,162.771 158.406 C 160.477 159.106,156.080 160.461,153.000 161.416 C 139.301 165.664,135.072 166.622,114.000 170.248 C 110.308 170.883,110.155 170.952,108.600 172.700 C 107.720 173.690,105.335 176.122,103.300 178.106 C 101.265 180.089,99.600 181.847,99.600 182.011 C 99.600 182.175,102.425 181.599,105.878 180.730 C 114.360 178.597,114.880 178.595,116.841 180.698 C 117.959 181.897,118.400 182.720,118.400 183.611 C 118.400 184.294,118.588 185.204,118.818 185.634 C 119.685 187.254,115.354 191.550,111.764 192.631 C 107.810 193.821,98.012 195.600,95.371 195.608 C 86.486 195.634,87.150 195.044,65.193 222.400 C 62.632 225.590,58.419 230.630,55.829 233.600 C 46.228 244.612,44.020 247.198,43.361 248.203 C 41.859 250.496,35.151 252.927,34.337 251.473 C 34.130 251.103,33.699 250.800,33.380 250.800 C 33.061 250.800,32.800 250.634,32.800 250.431 C 32.800 250.229,32.004 249.554,31.031 248.931 C 30.057 248.309,29.082 247.418,28.863 246.951 C 28.486 246.149,26.547 245.320,26.098 245.769 C 25.832 246.034,26.819 249.600,27.157 249.600 C 27.297 249.600,27.633 250.536,27.905 251.680 C 29.011 256.338,34.794 259.416,38.654 257.402 C 39.284 257.074,40.117 256.804,40.504 256.802 C 41.938 256.797,44.843 255.060,46.102 253.455 C 46.816 252.545,47.782 251.350,48.250 250.800 C 50.554 248.089,53.171 245.110,55.695 242.322 C 57.228 240.629,58.918 238.649,59.449 237.922 C 59.981 237.195,60.640 236.420,60.914 236.200 C 61.836 235.460,65.600 230.942,65.606 230.569 C 65.609 230.366,66.616 229.134,67.844 227.832 C 69.071 226.530,70.484 224.820,70.983 224.032 C 71.482 223.244,72.723 221.676,73.740 220.547 C 74.758 219.417,76.267 217.595,77.095 216.497 C 82.741 209.009,89.780 201.626,91.331 201.566 C 91.809 201.548,94.217 201.413,96.682 201.266 L 101.164 201.000 100.250 201.800 C 99.748 202.240,98.866 203.230,98.291 204.000 C 97.715 204.770,96.498 206.210,95.585 207.200 C 93.989 208.932,91.896 212.359,92.762 211.824 C 92.993 211.681,94.204 210.207,95.452 208.548 C 106.522 193.839,126.822 185.518,129.818 194.460 C 130.490 196.466,131.523 196.787,137.323 196.794 C 142.404 196.800,142.459 196.790,143.923 195.617 C 147.137 193.043,153.973 190.800,158.602 190.800 C 161.279 190.800,163.672 192.395,164.427 194.682 C 165.363 197.518,172.633 197.858,176.117 195.228 C 180.860 191.649,190.032 189.546,192.712 191.423 C 193.912 192.264,193.964 192.214,197.150 187.089 C 199.731 182.936,205.931 173.428,208.816 169.200 C 209.492 168.210,211.996 164.446,214.382 160.835 C 218.386 154.777,219.735 153.252,221.124 153.214 C 222.027 153.190,225.901 157.177,226.770 159.025 C 228.372 162.433,229.084 161.038,214.220 183.600 C 206.208 195.762,206.533 195.061,209.668 193.401 C 221.201 187.296,232.000 187.272,232.000 193.352 C 232.000 195.168,231.562 195.486,223.676 199.400 C 216.362 203.030,216.387 203.006,219.493 203.394 C 224.387 204.006,230.002 207.351,230.708 210.076 L 231.030 211.321 234.215 208.732 C 236.575 206.814,237.970 205.264,239.600 202.749 C 244.116 195.780,245.763 193.282,248.841 188.732 C 250.579 186.165,252.000 183.987,252.000 183.892 C 252.000 183.797,249.616 183.594,246.701 183.440 C 240.737 183.125,239.552 182.674,236.165 179.429 C 235.186 178.490,234.467 178.010,234.567 178.361 C 236.574 185.418,236.423 185.148,239.530 187.295 C 241.070 188.359,241.912 188.630,244.302 188.828 C 245.897 188.961,247.308 189.175,247.437 189.304 C 247.627 189.494,245.256 193.332,243.918 195.000 C 243.306 195.763,238.994 202.606,238.407 203.745 C 238.082 204.374,237.453 205.044,237.008 205.232 C 236.564 205.421,235.486 206.199,234.613 206.961 L 233.025 208.347 232.542 207.197 C 232.276 206.564,231.319 205.580,230.415 205.009 C 228.497 203.799,228.594 203.617,232.082 201.867 C 234.693 200.556,235.815 198.809,235.414 196.681 C 234.835 193.612,233.426 188.944,232.887 188.314 C 231.187 186.324,225.648 186.002,220.421 187.591 C 219.002 188.022,217.795 188.329,217.739 188.273 C 217.634 188.167,219.836 184.634,222.364 180.851 C 225.909 175.545,229.571 169.771,229.585 169.463 C 229.593 169.278,229.960 168.669,230.400 168.109 C 231.324 166.934,231.447 164.682,230.667 163.189 C 230.377 162.633,229.935 161.366,229.686 160.374 C 227.467 151.562,222.216 148.743,218.186 154.200 C 217.536 155.080,216.901 155.890,216.773 156.000 C 216.493 156.242,213.502 160.932,211.607 164.100 C 210.850 165.365,210.104 166.400,209.948 166.400 C 209.793 166.400,209.263 167.075,208.772 167.900 C 206.644 171.471,203.416 176.616,203.188 176.800 C 202.825 177.093,199.917 181.512,198.714 183.600 C 198.144 184.590,197.068 186.167,196.324 187.105 L 194.970 188.811 190.346 188.905 C 187.569 188.962,185.499 189.185,185.161 189.464 C 184.853 189.719,183.475 190.305,182.100 190.768 C 180.725 191.230,178.427 192.326,176.993 193.204 C 172.579 195.906,167.478 195.493,166.226 192.331 C 164.938 189.077,164.093 188.682,158.905 188.903 C 156.433 189.008,154.183 189.274,153.905 189.494 C 153.627 189.714,152.410 190.213,151.200 190.602 C 148.503 191.470,146.210 192.584,144.527 193.846 C 141.710 195.956,132.710 195.054,131.834 192.573 C 130.784 189.602,129.882 189.028,125.908 188.804 C 121.699 188.567,122.029 188.911,120.799 183.471 C 119.484 177.650,117.808 176.408,112.800 177.542 C 111.196 177.906,111.084 177.887,111.776 177.375 C 112.204 177.059,112.789 176.800,113.076 176.800 C 113.364 176.800,113.600 176.644,113.600 176.453 C 113.600 176.263,115.985 175.724,118.900 175.257 C 135.333 172.622,144.555 170.706,147.037 169.411 C 147.677 169.078,148.480 168.804,148.822 168.802 C 149.165 168.801,150.515 168.457,151.822 168.039 C 154.366 167.224,160.643 165.377,165.700 163.955 C 167.405 163.476,168.800 162.930,168.800 162.742 C 168.800 162.554,169.036 162.400,169.325 162.400 C 170.910 162.400,173.600 157.742,173.600 154.998 C 173.600 152.008,172.429 147.993,171.443 147.605 C 170.371 147.183,169.511 146.127,168.994 144.600 C 168.771 143.940,168.186 143.222,167.694 143.005 C 167.202 142.788,166.800 142.473,166.800 142.305 C 166.800 142.137,166.350 142.000,165.800 142.000 C 165.250 142.000,164.800 142.145,164.800 142.322 M272.594 152.642 C 270.923 154.494,266.824 160.304,261.697 168.088 L 259.400 171.575 257.600 171.602 C 246.410 171.768,236.266 172.396,235.378 172.978 C 234.229 173.730,234.007 175.037,235.100 174.616 C 236.052 174.249,247.455 173.632,253.617 173.615 L 258.634 173.600 260.707 170.500 C 267.375 160.530,272.864 153.015,273.716 152.687 C 274.557 152.365,278.442 154.075,280.347 155.605 C 282.490 157.328,282.778 158.420,281.546 160.161 C 279.146 163.555,274.077 171.094,273.630 171.936 L 273.133 172.873 277.266 172.745 L 281.400 172.618 284.924 175.145 C 288.515 177.722,289.443 178.976,289.016 180.679 C 288.547 182.547,287.664 182.717,276.610 183.069 L 266.219 183.400 261.810 190.004 C 259.384 193.636,255.273 199.711,252.674 203.504 C 250.074 207.297,248.035 210.400,248.141 210.400 C 248.247 210.400,251.364 208.375,255.067 205.900 L 261.800 201.400 264.907 196.800 C 268.837 190.982,269.372 190.669,273.172 191.962 C 280.021 194.294,280.492 196.404,275.693 203.269 C 267.401 215.132,267.776 214.439,270.206 213.423 C 274.386 211.677,279.466 206.904,283.447 200.981 C 286.651 196.216,288.856 195.365,294.171 196.841 C 299.584 198.343,299.874 200.458,295.597 207.229 C 292.673 211.857,288.291 220.377,288.638 220.757 C 288.717 220.844,290.020 219.973,291.534 218.822 C 294.380 216.659,295.511 215.128,301.015 206.000 C 302.275 203.910,304.992 199.631,307.053 196.492 C 311.499 189.718,311.359 190.400,308.306 190.400 C 305.304 190.400,302.506 189.140,299.696 186.523 C 298.684 185.581,297.806 184.861,297.744 184.923 C 297.512 185.154,298.107 186.800,298.422 186.800 C 298.603 186.800,298.870 187.591,299.015 188.559 C 299.480 191.659,302.426 194.904,305.300 195.480 C 306.654 195.751,306.729 196.698,305.500 198.010 C 305.005 198.539,304.036 199.861,303.347 200.950 L 302.094 202.929 301.446 200.564 C 300.207 196.048,299.290 195.255,294.303 194.394 C 290.472 193.733,286.000 194.722,286.000 196.232 C 286.000 196.484,285.588 197.120,285.084 197.645 C 284.580 198.170,283.833 199.130,283.424 199.777 L 282.680 200.954 281.805 197.305 C 280.643 192.466,280.201 191.865,277.020 190.807 C 275.584 190.329,274.306 189.772,274.181 189.569 C 272.857 187.427,264.800 193.075,264.800 196.144 C 264.800 196.247,264.444 196.752,264.008 197.266 C 263.573 197.780,262.849 198.650,262.399 199.200 C 261.950 199.750,262.171 199.210,262.891 198.000 C 263.611 196.790,264.394 195.620,264.631 195.400 C 265.092 194.973,267.527 191.175,268.211 189.816 C 268.601 189.041,269.116 188.985,278.411 188.698 C 289.756 188.348,289.675 188.360,291.271 186.728 C 292.569 185.399,292.869 180.490,291.676 180.092 C 291.414 180.005,291.200 179.711,291.200 179.439 C 291.200 175.623,286.172 170.800,282.195 170.800 L 280.814 170.800 281.644 169.300 C 282.101 168.475,283.198 166.934,284.082 165.875 C 285.740 163.890,286.257 159.300,284.916 158.472 C 284.673 158.321,284.347 157.479,284.192 156.599 C 283.780 154.262,283.158 153.505,280.631 152.268 C 276.487 150.239,274.688 150.322,272.594 152.642 M340.600 161.548 C 337.906 162.324,331.930 165.145,329.200 166.929 C 326.099 168.956,320.592 174.401,319.823 176.200 C 318.828 178.529,318.291 178.725,312.198 178.985 C 300.080 179.501,299.328 179.589,298.220 180.617 C 296.934 181.809,296.844 182.619,298.071 181.962 C 298.588 181.685,302.448 181.354,307.571 181.147 C 318.172 180.719,317.544 180.873,319.095 178.316 C 323.598 170.891,338.775 161.469,343.709 163.035 C 347.167 164.132,347.997 166.013,346.828 170.101 C 345.989 173.035,346.143 173.353,347.630 171.763 C 350.382 168.820,357.609 164.876,362.583 163.604 C 366.278 162.659,366.937 162.777,369.118 164.770 L 370.780 166.289 370.011 169.062 C 368.605 174.139,368.700 174.010,366.840 173.369 C 363.714 172.292,358.482 174.176,355.756 177.359 C 353.702 179.760,353.884 180.033,357.339 179.741 L 360.278 179.493 363.239 181.505 C 368.190 184.870,369.128 186.229,367.847 188.184 C 367.018 189.449,366.302 189.556,356.224 189.908 L 347.848 190.200 343.923 196.400 C 341.765 199.810,337.794 206.160,335.099 210.510 C 325.171 226.539,325.556 226.106,321.065 226.333 C 317.996 226.488,314.000 224.334,314.000 222.524 C 314.000 222.162,313.902 221.964,313.783 222.084 C 312.958 222.909,316.056 230.775,317.513 231.552 C 321.933 233.911,327.636 232.033,330.725 227.200 C 331.498 225.990,332.237 224.910,332.366 224.800 C 332.721 224.497,336.576 218.035,337.556 216.100 C 338.029 215.165,338.555 214.400,338.725 214.400 C 338.896 214.400,340.003 212.735,341.187 210.700 C 342.371 208.665,344.808 204.750,346.603 202.000 C 348.398 199.250,349.970 196.713,350.096 196.363 C 350.293 195.820,351.583 195.685,358.863 195.448 C 372.345 195.009,373.032 194.427,370.492 185.600 L 369.398 181.800 367.016 180.400 L 364.634 179.000 366.010 178.868 C 367.162 178.757,367.599 178.968,368.698 180.168 C 370.460 182.091,370.518 182.058,371.617 178.500 C 372.143 176.795,372.689 175.310,372.830 175.200 C 374.102 174.206,374.095 166.439,372.822 165.601 C 372.654 165.491,372.294 164.719,372.022 163.886 C 371.075 160.981,368.581 160.293,363.581 161.557 C 361.747 162.021,360.147 162.554,360.024 162.742 C 359.901 162.930,359.170 163.290,358.400 163.542 C 357.630 163.794,355.956 164.630,354.680 165.400 C 353.404 166.170,352.248 166.800,352.111 166.800 C 351.975 166.800,351.557 167.077,351.183 167.415 C 350.555 167.983,350.466 167.886,350.030 166.155 C 348.748 161.061,346.353 159.891,340.600 161.548 M339.894 173.235 C 336.691 173.990,332.947 176.581,331.769 178.859 L 331.179 180.000 335.971 180.000 C 340.658 180.000,340.778 179.978,341.481 178.976 C 341.877 178.413,342.875 177.069,343.700 175.988 C 344.525 174.908,345.200 173.937,345.200 173.831 C 345.200 173.605,342.386 172.787,341.800 172.842 C 341.580 172.863,340.722 173.040,339.894 173.235 M321.387 195.956 C 316.691 203.353,311.584 211.515,307.593 218.000 C 305.765 220.970,303.894 223.828,303.435 224.352 C 301.404 226.666,296.553 227.169,293.912 225.339 L 292.381 224.278 290.690 225.486 C 285.377 229.284,284.100 229.420,279.876 226.639 C 275.615 223.832,275.065 223.209,275.274 221.418 C 275.365 220.638,275.377 220.000,275.300 220.000 C 275.019 220.000,270.539 222.935,268.600 224.390 C 265.302 226.864,264.275 226.771,259.323 223.548 C 254.722 220.554,253.212 216.697,255.152 212.895 C 256.304 210.636,256.236 210.543,254.500 212.002 C 251.296 214.694,238.559 225.054,238.119 225.327 C 234.155 227.776,227.602 223.204,229.169 219.082 L 229.570 218.026 227.650 219.207 C 224.336 221.246,208.507 225.800,204.800 225.780 C 202.148 225.766,199.286 224.349,196.373 221.608 L 194.452 219.800 192.533 221.100 C 190.324 222.597,188.798 222.738,187.191 221.593 L 186.058 220.787 183.529 222.542 C 182.138 223.507,180.431 224.587,179.734 224.941 C 172.709 228.515,160.370 221.899,160.860 214.820 C 161.024 212.452,160.928 212.402,159.375 214.036 C 153.014 220.731,143.058 226.350,138.418 225.865 C 129.648 224.948,124.187 218.505,127.225 212.658 L 128.086 211.000 125.543 213.418 C 110.849 227.392,100.034 229.498,92.721 219.809 C 91.319 217.952,91.328 218.195,92.845 223.233 C 93.631 225.847,97.466 230.000,99.092 230.000 C 99.372 230.000,99.600 230.162,99.600 230.360 C 99.600 230.961,103.625 231.755,106.600 231.742 C 109.288 231.730,112.400 231.042,112.400 230.460 C 112.400 230.307,113.075 229.835,113.900 229.411 C 115.845 228.411,121.625 224.713,122.400 223.973 C 126.288 220.262,126.532 220.219,127.343 223.111 C 128.474 227.141,133.142 230.792,138.197 231.599 C 141.591 232.142,146.050 231.541,146.792 230.442 C 146.906 230.272,148.134 229.534,149.520 228.801 C 152.324 227.317,156.089 224.688,159.150 222.074 L 161.172 220.349 161.433 221.474 C 162.517 226.140,168.074 230.685,173.817 231.603 C 177.152 232.136,182.400 231.381,182.400 230.369 C 182.400 230.166,182.604 230.000,182.852 230.000 C 183.101 230.000,184.177 229.373,185.244 228.607 C 186.897 227.419,187.336 227.271,188.218 227.607 C 190.110 228.326,192.907 228.079,194.393 227.061 C 195.752 226.130,195.771 226.128,196.582 226.899 C 197.032 227.326,198.210 228.232,199.200 228.911 C 200.190 229.591,201.094 230.283,201.208 230.449 C 202.239 231.940,211.743 231.889,212.800 230.386 C 212.910 230.229,214.890 229.626,217.200 229.046 C 223.307 227.511,225.154 226.979,227.469 226.093 L 229.538 225.300 229.801 226.346 C 229.945 226.921,230.185 227.484,230.333 227.596 C 230.481 227.708,231.129 228.576,231.772 229.524 C 234.148 233.025,239.340 232.946,242.488 229.361 C 243.145 228.613,243.863 228.000,244.083 228.000 C 244.586 228.000,249.220 224.148,249.923 223.146 C 250.210 222.736,250.632 222.400,250.859 222.400 C 251.087 222.400,252.019 221.762,252.930 220.981 C 254.819 219.365,254.488 219.051,255.778 223.688 C 256.453 226.112,257.218 227.125,259.800 229.021 C 260.680 229.667,261.496 230.324,261.614 230.482 C 262.990 232.326,270.400 232.296,270.400 230.447 C 270.400 230.186,274.465 227.417,275.623 226.889 C 275.757 226.828,276.081 227.494,276.343 228.369 C 276.839 230.024,277.603 230.719,281.545 233.100 C 284.615 234.955,286.289 234.871,290.575 232.647 C 293.456 231.152,294.062 230.967,294.677 231.396 C 299.552 234.792,306.504 231.287,310.138 223.600 C 310.502 222.830,311.297 221.619,311.904 220.910 C 312.511 220.200,313.361 218.940,313.793 218.110 C 314.225 217.279,315.439 215.207,316.489 213.504 C 317.540 211.802,318.400 210.227,318.400 210.004 C 318.400 209.782,318.554 209.600,318.742 209.600 C 319.051 209.600,322.800 203.854,322.800 203.381 C 322.800 203.073,324.901 199.848,325.394 199.400 C 325.635 199.180,326.246 198.325,326.749 197.500 C 327.322 196.562,327.969 196.000,328.475 196.000 C 329.533 196.000,329.393 196.324,326.277 201.092 C 322.827 206.372,321.722 208.147,320.521 210.340 C 319.960 211.363,319.096 212.650,318.599 213.200 C 318.103 213.750,317.112 215.280,316.396 216.600 C 315.680 217.920,314.912 219.229,314.690 219.510 C 314.468 219.790,314.367 220.100,314.465 220.199 C 314.657 220.390,318.133 215.202,321.569 209.600 C 324.558 204.725,326.494 201.682,330.271 195.925 C 332.102 193.134,333.600 190.774,333.600 190.681 C 333.600 190.588,331.630 190.512,329.222 190.512 L 324.844 190.512 321.387 195.956 M117.741 200.988 C 111.273 204.254,101.277 214.610,102.963 216.296 C 104.496 217.830,120.308 206.481,122.440 202.316 C 124.289 198.705,122.989 198.338,117.741 200.988 M153.806 200.203 C 147.650 202.734,137.600 212.355,137.600 215.718 C 137.600 218.460,153.153 208.176,156.385 203.298 C 158.849 199.577,157.951 198.499,153.806 200.203 M184.400 200.092 C 179.756 202.292,170.460 215.200,173.520 215.200 C 175.365 215.200,188.800 201.584,188.800 199.715 C 188.800 198.922,186.444 199.124,184.400 200.092 M134.893 202.300 C 133.432 204.410,133.494 204.589,135.141 203.019 C 136.999 201.248,137.028 201.200,136.227 201.200 C 135.912 201.200,135.312 201.695,134.893 202.300 M198.577 207.861 C 197.490 209.557,196.443 211.207,196.250 211.526 C 196.058 211.846,197.545 211.240,199.555 210.180 L 203.209 208.253 202.258 207.227 C 201.735 206.662,201.138 205.880,200.931 205.488 C 200.614 204.888,200.244 205.262,198.577 207.861 M202.962 210.055 L 202.200 210.909 203.500 210.244 C 204.888 209.535,205.132 209.200,204.262 209.200 C 203.966 209.200,203.381 209.585,202.962 210.055 M204.100 211.764 C 203.055 212.692,200.983 214.475,199.495 215.726 C 198.007 216.976,196.837 218.000,196.895 218.000 C 197.290 218.000,206.887 215.938,208.078 215.597 C 208.891 215.365,210.961 214.517,212.678 213.714 L 215.800 212.254 212.944 211.942 C 211.373 211.771,209.168 211.281,208.044 210.854 L 206.001 210.077 204.100 211.764 " stroke="none" fill="#060606" fill-rule="evenodd"></path><path id="path1" d="M166.000 146.153 C 166.000 146.640,167.367 149.200,167.627 149.200 C 168.061 149.200,166.939 146.246,166.442 146.081 C 166.199 146.000,166.000 146.032,166.000 146.153 M167.954 152.609 C 166.784 155.098,165.701 155.824,161.035 157.250 C 158.816 157.928,154.480 159.260,151.400 160.211 C 140.197 163.668,133.823 165.240,123.911 166.992 C 109.853 169.476,109.254 169.593,108.264 170.044 C 107.781 170.264,106.947 171.109,106.411 171.922 C 105.876 172.735,103.216 175.537,100.502 178.150 C 97.787 180.762,95.629 182.962,95.706 183.039 C 96.675 184.008,105.478 176.737,107.732 173.106 C 109.102 170.899,108.842 170.975,124.600 168.178 C 133.633 166.574,144.103 164.037,151.800 161.585 C 154.660 160.674,159.160 159.301,161.800 158.533 C 167.634 156.838,170.000 154.848,170.000 151.640 C 170.000 150.175,168.840 150.724,167.954 152.609 M224.085 155.822 C 225.041 156.949,226.000 159.369,226.000 160.654 C 226.000 161.974,224.807 163.909,212.519 182.523 C 207.174 190.620,202.800 197.334,202.800 197.442 C 202.800 198.526,206.737 194.567,208.891 191.317 C 226.376 164.929,227.201 163.595,227.196 161.693 C 227.192 160.104,225.434 156.595,224.138 155.587 C 223.432 155.039,223.430 155.049,224.085 155.822 M280.800 157.094 C 280.800 157.529,280.200 158.676,279.467 159.642 C 278.130 161.406,273.425 168.370,271.494 171.443 L 270.462 173.086 271.617 172.843 C 272.545 172.648,273.415 171.654,276.031 167.800 C 277.823 165.160,279.899 162.166,280.644 161.146 C 282.097 159.160,282.368 157.603,281.400 156.800 C 280.901 156.386,280.800 156.435,280.800 157.094 M346.000 165.611 C 346.000 166.155,345.560 168.027,345.021 169.772 C 344.109 172.728,344.089 172.977,344.721 173.440 C 345.596 174.081,345.709 173.872,346.793 169.629 L 347.650 166.272 346.825 165.447 L 346.000 164.622 346.000 165.611 M368.615 167.480 C 368.256 168.756,367.690 170.503,367.359 171.363 C 366.772 172.885,366.994 173.570,368.083 173.594 C 368.381 173.600,370.400 167.533,370.400 166.628 C 370.400 164.731,369.232 165.288,368.615 167.480 M335.774 172.951 C 332.637 174.412,329.200 177.984,329.200 179.784 C 329.200 180.702,331.126 179.799,331.787 178.572 C 333.279 175.802,338.328 172.811,341.524 172.804 C 342.570 172.802,343.150 172.643,343.000 172.400 C 342.509 171.605,337.911 171.956,335.774 172.951 M359.997 172.374 C 357.025 173.278,353.983 175.681,352.749 178.101 C 351.476 180.594,353.255 180.700,354.786 178.222 C 356.423 175.574,361.287 172.811,364.324 172.804 C 365.370 172.802,365.950 172.643,365.800 172.400 C 365.515 171.939,361.485 171.921,359.997 172.374 M84.000 174.279 C 83.450 174.373,81.740 174.784,80.200 175.193 C 78.660 175.603,75.510 176.145,73.200 176.398 C 69.237 176.833,67.911 177.244,68.518 177.851 C 68.915 178.248,79.961 176.891,81.800 176.220 C 82.680 175.898,83.777 175.627,84.238 175.618 C 84.699 175.608,85.402 175.240,85.800 174.800 C 86.601 173.915,86.431 173.866,84.000 174.279 M287.613 178.456 C 287.576 181.464,285.749 181.873,271.800 181.992 L 264.600 182.053 258.299 191.527 C 254.834 196.737,250.113 203.753,247.808 207.117 L 243.618 213.235 245.309 212.254 C 247.108 211.211,249.361 208.141,260.682 191.300 L 266.128 183.200 268.364 183.162 C 283.287 182.911,287.267 182.605,288.039 181.652 C 288.950 180.526,289.014 179.236,288.213 178.176 C 287.648 177.430,287.625 177.441,287.613 178.456 M116.813 182.276 C 116.806 183.198,116.980 184.064,117.200 184.200 C 118.891 185.245,113.977 190.283,110.141 191.438 C 105.653 192.788,98.108 194.114,92.354 194.562 C 85.142 195.124,85.702 194.843,80.768 200.391 C 77.307 204.281,64.295 220.101,60.299 225.276 C 59.473 226.345,56.233 230.122,53.099 233.670 C 49.964 237.217,45.906 241.938,44.080 244.160 C 40.621 248.369,38.685 249.817,35.923 250.259 C 33.949 250.574,33.844 251.600,35.785 251.600 C 38.918 251.600,41.374 250.185,44.282 246.702 C 45.777 244.913,47.900 242.410,49.000 241.141 C 58.401 230.296,62.638 225.263,69.657 216.600 C 87.141 195.024,86.210 195.813,94.600 195.476 C 99.600 195.274,110.602 193.071,113.596 191.671 C 116.747 190.197,119.772 186.248,118.400 185.400 C 118.180 185.264,118.000 184.478,118.000 183.653 C 118.000 182.828,117.736 181.804,117.413 181.376 C 116.866 180.654,116.825 180.716,116.813 182.276 M240.800 182.538 C 242.409 183.472,252.200 183.898,252.526 183.048 C 252.745 182.478,252.303 182.400,248.846 182.400 C 246.685 182.400,243.766 182.300,242.359 182.179 C 239.982 181.973,239.871 181.998,240.800 182.538 M366.640 185.015 C 367.199 188.025,364.558 188.725,352.400 188.786 C 346.314 188.817,346.147 188.898,343.667 193.000 C 342.603 194.760,339.787 199.260,337.410 203.000 C 335.032 206.740,331.771 211.960,330.163 214.600 C 324.133 224.496,323.858 224.775,319.825 225.099 C 316.450 225.370,316.906 226.091,320.470 226.120 C 324.608 226.154,325.492 225.507,329.023 219.858 C 330.693 217.186,334.595 210.950,337.695 206.000 C 340.794 201.050,344.309 195.425,345.505 193.500 L 347.679 190.000 350.539 189.981 C 359.281 189.922,366.952 189.280,367.477 188.563 C 368.237 187.523,368.118 185.829,367.207 184.744 L 366.415 183.800 366.640 185.015 M304.356 189.564 C 305.105 190.039,310.653 190.538,311.228 190.183 C 312.171 189.600,310.562 189.212,307.200 189.212 C 305.087 189.212,304.010 189.346,304.356 189.564 M320.303 193.957 C 315.098 202.126,307.936 213.584,302.865 221.859 C 301.521 224.051,300.050 224.856,296.931 225.106 C 293.608 225.373,294.167 226.139,297.691 226.148 C 301.127 226.156,302.920 225.302,304.297 222.998 C 304.904 221.983,307.892 217.159,310.938 212.276 C 313.984 207.394,316.954 202.619,317.538 201.665 C 318.122 200.711,319.995 197.755,321.700 195.096 L 324.801 190.262 329.347 190.360 C 333.151 190.441,333.931 190.356,334.131 189.835 C 334.341 189.289,333.689 189.219,328.816 189.263 L 323.262 189.314 320.303 193.957 M230.413 192.038 C 230.396 193.960,230.174 194.122,221.700 198.403 C 214.447 202.067,213.410 202.800,215.480 202.800 C 216.689 202.800,230.719 195.862,231.500 194.877 C 232.228 193.960,232.113 192.624,231.213 191.544 L 230.427 190.600 230.413 192.038 M128.587 193.800 C 129.447 195.901,130.203 196.634,129.826 195.000 C 129.674 194.340,129.186 193.440,128.741 193.000 L 127.932 192.200 128.587 193.800 M162.801 193.100 C 162.804 193.519,164.342 196.000,164.599 196.000 C 164.716 196.000,164.538 195.348,164.205 194.551 C 163.872 193.754,163.600 193.034,163.600 192.951 C 163.600 192.868,163.420 192.800,163.200 192.800 C 162.980 192.800,162.801 192.935,162.801 193.100 M277.487 196.142 C 277.351 196.978,275.488 200.053,272.597 204.212 C 265.464 214.475,265.268 214.830,266.900 214.516 C 267.753 214.352,268.571 213.334,271.948 208.235 C 272.689 207.116,274.534 204.456,276.048 202.325 C 278.897 198.314,279.524 196.299,278.253 195.244 C 277.813 194.879,277.663 195.055,277.487 196.142 M61.600 196.322 C 61.600 196.776,66.683 197.450,67.085 197.049 C 67.597 196.536,66.692 196.231,64.185 196.071 C 62.561 195.968,61.600 196.061,61.600 196.322 M184.376 198.297 C 178.600 200.250,170.081 211.363,171.496 215.100 C 171.782 215.855,172.800 215.699,172.800 214.900 C 172.803 209.758,182.974 198.800,187.745 198.800 C 189.139 198.800,188.982 198.511,187.328 198.037 C 186.528 197.807,185.577 197.891,184.376 198.297 M116.579 199.538 C 109.215 203.100,100.119 212.834,101.589 215.579 C 102.190 216.703,102.662 216.609,102.985 215.300 C 104.207 210.351,116.977 199.253,121.500 199.209 C 122.536 199.199,122.701 198.601,121.767 198.243 C 120.589 197.791,119.765 197.996,116.579 199.538 M152.253 198.975 C 145.485 201.784,135.750 211.416,136.089 214.969 C 136.269 216.867,136.927 216.549,138.121 213.983 C 140.562 208.737,152.109 199.200,156.020 199.200 C 157.188 199.200,156.789 198.226,155.569 198.100 C 155.036 198.046,153.544 198.439,152.253 198.975 M136.283 199.559 C 134.082 200.190,133.841 200.392,131.454 203.612 C 124.634 212.811,112.258 222.899,105.930 224.417 C 104.162 224.841,100.758 224.707,98.837 224.138 C 98.487 224.034,98.736 224.258,99.391 224.635 C 102.017 226.147,107.379 225.916,110.706 224.146 C 118.222 220.148,126.727 212.763,132.267 205.424 C 134.121 202.967,135.712 201.260,136.352 201.040 C 137.577 200.620,139.911 198.778,139.131 198.847 C 138.839 198.873,137.557 199.194,136.283 199.559 M297.200 199.876 C 297.200 200.693,296.221 202.587,294.132 205.814 C 290.272 211.775,285.274 222.400,286.330 222.400 C 287.078 222.400,288.406 220.328,290.688 215.600 C 292.015 212.850,294.384 208.637,295.951 206.238 C 298.969 201.617,299.285 200.563,298.000 199.400 C 297.217 198.691,297.200 198.701,297.200 199.876 M169.400 200.039 C 168.567 200.293,167.677 201.184,166.488 202.956 C 162.845 208.384,154.218 216.606,147.931 220.642 C 141.847 224.547,139.304 225.227,134.200 224.314 L 132.600 224.027 134.000 224.672 C 136.067 225.623,141.115 225.841,143.361 225.075 C 148.707 223.254,160.027 214.125,163.034 209.211 C 164.040 207.568,166.215 204.733,167.869 202.911 C 169.522 201.090,170.813 199.616,170.738 199.636 C 170.662 199.656,170.060 199.837,169.400 200.039 M198.099 204.877 C 195.274 209.262,192.852 213.385,193.007 213.541 C 193.877 214.411,200.416 205.926,200.394 203.955 C 200.374 202.181,199.647 202.473,198.099 204.877 M254.773 209.232 C 252.918 210.790,249.240 213.834,246.600 215.997 C 243.960 218.161,240.684 220.847,239.319 221.968 C 236.699 224.120,235.367 224.800,233.774 224.800 C 232.543 224.800,232.501 225.510,233.713 225.814 C 236.359 226.478,240.132 223.945,253.738 212.375 C 256.461 210.059,259.347 206.400,258.450 206.400 C 258.283 206.400,256.629 207.674,254.773 209.232 M229.364 209.200 C 229.488 209.750,229.592 210.717,229.595 211.349 C 229.599 212.325,229.690 212.423,230.200 212.000 C 231.034 211.308,230.949 210.258,229.970 209.144 L 229.139 208.200 229.364 209.200 M203.508 210.394 C 202.467 210.970,199.865 212.872,197.726 214.620 C 192.183 219.152,189.186 221.200,188.098 221.200 C 186.751 221.200,187.373 221.921,188.980 222.223 C 190.151 222.442,190.635 222.245,192.617 220.738 C 193.874 219.782,195.284 218.741,195.751 218.425 C 196.558 217.878,197.428 217.161,203.669 211.908 C 206.578 209.459,206.501 208.737,203.508 210.394 M207.905 210.601 C 209.609 211.391,214.879 212.167,216.234 211.827 C 217.943 211.398,217.107 211.139,212.926 210.801 C 210.767 210.627,208.460 210.374,207.800 210.240 L 206.600 209.996 207.905 210.601 M228.400 216.426 C 224.536 219.106,221.973 220.121,213.200 222.445 C 205.306 224.536,203.321 224.920,201.816 224.642 L 200.600 224.418 201.600 224.995 C 204.506 226.671,222.373 222.323,228.417 218.469 C 229.754 217.616,232.765 213.809,231.926 214.034 C 231.857 214.052,230.270 215.128,228.400 216.426 M271.841 219.915 C 269.003 221.832,266.213 223.714,265.641 224.098 C 265.068 224.482,263.970 224.803,263.200 224.812 L 261.800 224.828 262.800 225.400 C 264.255 226.232,265.704 226.126,267.244 225.075 C 274.871 219.870,276.229 218.797,276.665 217.637 C 276.921 216.957,277.101 216.407,277.065 216.415 C 277.029 216.423,274.678 217.998,271.841 219.915 M182.000 221.268 C 177.569 224.489,174.733 225.196,169.800 224.314 L 168.200 224.027 169.600 224.672 C 174.155 226.768,180.686 225.248,185.557 220.958 C 185.764 220.775,184.774 219.590,184.451 219.634 C 184.313 219.653,183.210 220.388,182.000 221.268 M288.200 224.847 C 286.661 225.892,284.627 226.994,283.681 227.296 L 281.962 227.845 282.960 228.379 C 284.759 229.341,293.106 224.717,291.701 223.537 C 291.068 223.004,290.729 223.132,288.200 224.847 " stroke="none" fill="#5ab7a7" fill-rule="evenodd"></path><path id="path2" d="M157.800 145.996 C 155.380 146.614,149.530 148.380,144.800 149.920 C 140.070 151.460,135.120 152.933,133.800 153.193 C 130.184 153.906,119.027 156.338,115.400 157.204 C 107.023 159.204,107.165 159.181,106.976 158.570 C 106.879 158.257,106.717 157.733,106.615 157.406 C 106.474 156.953,105.546 157.373,102.715 159.173 C 99.573 161.171,98.044 161.822,92.800 163.395 C 81.160 166.889,66.800 174.002,66.800 176.275 C 66.800 176.564,67.120 176.800,67.512 176.800 C 69.410 176.800,78.412 175.514,80.000 175.016 C 82.508 174.230,86.420 173.487,86.681 173.747 C 86.974 174.041,80.848 181.831,77.511 185.409 C 74.613 188.516,74.128 188.784,66.629 191.408 C 62.688 192.787,59.409 194.742,60.017 195.351 C 60.137 195.470,61.696 195.689,63.482 195.838 C 65.268 195.987,66.967 196.256,67.257 196.435 C 67.891 196.827,68.440 196.099,59.220 207.084 C 55.381 211.658,50.971 216.918,49.420 218.774 C 47.869 220.630,45.221 223.640,43.536 225.463 C 41.850 227.286,39.429 230.267,38.154 232.089 C 36.880 233.910,34.915 236.570,33.786 238.000 C 32.658 239.430,31.240 241.352,30.634 242.270 C 30.028 243.189,28.873 244.261,28.066 244.652 C 26.858 245.238,26.741 245.392,27.400 245.524 C 27.840 245.613,28.748 246.252,29.418 246.943 C 34.274 251.955,37.773 251.477,42.879 245.105 C 44.336 243.287,47.929 239.099,50.864 235.798 C 53.799 232.497,57.741 227.907,59.624 225.598 C 61.507 223.289,66.274 217.440,70.217 212.600 C 85.215 194.190,84.570 194.740,91.597 194.357 C 97.279 194.046,96.884 194.110,105.565 192.122 C 113.777 190.242,117.978 187.307,116.865 184.228 C 116.609 183.522,116.400 182.474,116.400 181.900 C 116.400 179.086,114.887 179.030,104.166 181.451 C 99.657 182.469,95.841 183.171,95.684 183.012 C 95.528 182.852,97.560 180.622,100.200 178.056 C 102.840 175.491,105.663 172.564,106.472 171.552 C 108.152 169.455,106.460 169.924,124.400 166.585 C 135.662 164.489,142.206 162.872,151.800 159.813 C 155.540 158.621,160.220 157.140,162.200 156.523 C 166.875 155.065,170.498 150.320,167.631 149.410 C 167.183 149.268,166.485 148.256,165.958 146.983 C 164.858 144.330,164.495 144.286,157.800 145.996 M273.274 153.433 C 272.834 153.741,271.028 156.110,269.260 158.697 C 267.492 161.284,264.445 165.740,262.489 168.600 L 258.931 173.800 247.649 174.098 C 233.440 174.474,232.807 174.691,235.485 178.256 C 237.677 181.175,239.070 181.669,246.480 182.157 L 253.203 182.600 245.488 194.391 L 237.772 206.182 233.786 209.447 C 229.374 213.062,229.200 213.106,229.200 210.607 C 229.200 207.042,225.259 204.506,217.900 203.338 C 215.535 202.962,213.600 202.549,213.600 202.419 C 213.600 202.289,216.869 200.566,220.865 198.591 C 230.484 193.837,231.487 192.930,229.799 190.520 C 227.242 186.870,213.838 190.237,204.072 196.982 C 201.422 198.812,201.350 198.963,207.801 189.200 C 227.803 158.930,226.618 161.183,224.613 157.226 C 222.110 152.287,219.981 152.588,216.317 158.400 C 214.871 160.693,205.146 175.505,198.375 185.725 C 196.216 188.984,194.377 191.864,194.287 192.125 C 194.175 192.453,193.624 192.321,192.508 191.700 C 189.234 189.878,179.696 192.282,175.468 195.994 L 173.960 197.318 169.740 197.079 C 164.817 196.801,164.002 196.409,162.705 193.695 C 162.207 192.654,161.350 191.570,160.800 191.285 C 158.495 190.092,149.938 192.260,144.993 195.289 L 142.200 197.000 137.000 197.000 C 130.557 197.000,129.583 196.661,128.450 194.028 C 126.975 190.599,125.229 190.172,119.112 191.747 C 109.122 194.319,93.334 207.952,91.394 215.683 C 90.487 219.294,97.415 224.400,103.222 224.400 C 109.921 224.400,123.230 214.397,131.292 203.304 C 133.908 199.705,133.166 200.139,140.100 198.147 C 141.225 197.824,140.962 198.142,137.909 200.796 C 131.591 206.287,127.066 212.122,126.584 215.398 C 125.690 221.464,135.589 226.658,142.267 223.626 C 149.857 220.179,161.806 209.583,166.985 201.705 C 167.993 200.173,169.666 199.213,171.348 199.202 C 171.540 199.201,170.522 200.446,169.085 201.969 C 160.270 211.313,158.924 216.367,164.022 220.972 C 168.976 225.448,175.528 225.600,181.416 221.376 C 184.301 219.306,184.544 219.206,185.218 219.816 C 187.550 221.926,190.199 220.647,199.174 213.076 C 201.278 211.301,203.294 209.603,203.654 209.304 C 204.210 208.841,204.673 208.884,206.772 209.590 C 208.344 210.120,210.848 210.513,213.684 210.675 L 218.132 210.930 216.966 211.860 C 214.677 213.687,209.238 215.638,202.253 217.140 C 194.379 218.833,193.922 219.195,196.654 221.594 C 200.481 224.954,202.570 225.066,212.221 222.427 C 223.303 219.398,226.431 218.037,230.916 214.297 C 233.451 212.182,233.545 212.494,231.358 215.755 C 229.004 219.263,228.758 220.693,230.148 222.794 C 232.246 225.963,234.711 225.391,240.935 220.294 C 248.494 214.103,254.067 209.413,257.159 206.639 C 260.585 203.565,261.056 203.527,259.097 206.483 C 253.519 214.902,253.444 219.307,258.822 222.783 C 262.549 225.192,263.592 225.259,266.340 223.263 C 270.401 220.314,276.823 216.290,277.071 216.538 C 277.205 216.672,276.929 217.709,276.457 218.844 C 274.899 222.593,275.189 223.281,279.396 225.814 C 282.473 227.667,284.932 227.165,289.473 223.756 C 291.060 222.565,291.242 222.567,292.400 223.800 C 293.654 225.135,298.243 225.259,300.287 224.013 C 301.727 223.134,301.830 222.983,310.656 208.817 C 314.145 203.216,318.350 196.474,320.000 193.835 L 323.000 189.036 328.800 189.153 C 331.990 189.217,334.648 189.317,334.706 189.375 C 334.765 189.432,332.899 192.431,330.561 196.040 C 328.223 199.648,325.143 204.490,323.716 206.800 C 322.290 209.110,319.792 213.070,318.165 215.600 C 313.535 222.804,313.737 222.282,315.042 223.644 C 316.063 224.709,316.371 224.799,318.975 224.783 C 323.563 224.756,323.601 224.720,330.522 213.539 C 338.975 199.885,344.711 190.774,345.571 189.636 C 346.291 188.684,346.411 188.669,355.450 188.371 C 365.428 188.043,365.893 187.965,366.247 186.556 C 366.728 184.641,366.084 183.648,363.132 181.757 L 360.284 179.931 356.082 180.217 L 351.879 180.504 352.136 179.218 C 353.083 174.486,362.688 169.417,365.805 172.004 C 367.048 173.035,369.256 166.155,368.200 164.544 C 365.254 160.047,347.970 169.159,342.563 178.061 L 341.142 180.400 334.944 180.400 L 328.746 180.400 329.019 179.500 C 330.583 174.333,339.827 169.367,342.992 171.993 C 343.866 172.719,344.064 172.391,345.234 168.279 L 346.144 165.083 344.996 164.095 C 341.026 160.680,325.412 169.365,319.400 178.333 C 317.501 181.166,317.965 181.052,306.800 181.430 C 300.039 181.659,297.200 182.093,297.200 182.898 C 297.200 183.064,297.347 183.200,297.526 183.200 C 297.705 183.200,298.150 183.824,298.514 184.588 C 299.805 187.296,302.744 188.728,307.657 189.041 L 311.913 189.312 310.818 191.156 C 310.215 192.170,308.377 195.070,306.734 197.600 C 303.928 201.920,302.811 203.694,297.135 212.849 C 295.678 215.199,294.109 217.132,292.735 218.270 C 290.623 220.018,286.367 222.800,285.804 222.800 C 284.491 222.800,291.822 208.093,295.748 202.851 C 298.044 199.784,297.431 198.038,293.673 196.946 C 288.668 195.491,286.945 196.222,283.737 201.161 C 281.308 204.900,276.176 210.237,273.005 212.323 C 271.034 213.619,265.768 215.502,265.332 215.066 C 265.037 214.770,269.871 207.358,275.981 198.738 C 278.265 195.515,277.664 194.017,273.464 192.464 C 269.379 190.953,268.459 191.566,263.953 198.800 C 262.583 201.000,261.738 201.800,258.467 203.997 C 250.510 209.342,243.200 213.961,243.200 213.644 C 243.200 213.464,246.019 209.195,249.465 204.158 C 252.911 199.121,257.662 192.103,260.023 188.561 L 264.315 182.123 266.816 181.861 C 268.192 181.718,272.306 181.587,275.959 181.570 C 284.564 181.532,285.994 181.315,286.772 179.927 C 288.291 177.218,283.042 172.648,278.843 173.026 C 274.944 173.376,270.400 173.434,270.400 173.133 C 270.400 172.566,273.194 168.125,276.776 163.000 C 279.342 159.328,280.379 157.510,280.305 156.813 C 280.102 154.903,274.808 152.358,273.274 153.433 M122.618 198.582 C 124.717 200.680,121.859 205.025,115.058 210.077 C 102.834 219.157,96.889 218.395,104.635 208.741 C 110.390 201.569,120.112 196.076,122.618 198.582 M156.946 198.429 C 158.553 199.693,158.336 201.114,156.082 204.077 C 152.403 208.914,141.111 216.400,137.493 216.400 C 130.082 216.400,147.564 198.120,155.446 197.628 C 155.691 197.613,156.366 197.973,156.946 198.429 M188.426 198.014 C 190.164 198.944,188.547 201.793,183.038 207.510 C 174.038 216.850,168.577 218.401,172.147 210.603 C 176.027 202.129,184.243 195.775,188.426 198.014 M200.561 201.758 C 200.187 202.733,201.192 205.563,202.402 206.942 L 203.571 208.273 200.286 210.084 C 198.478 211.080,195.952 212.475,194.670 213.185 C 191.612 214.878,191.570 214.696,194.107 210.746 C 195.289 208.906,197.111 206.005,198.156 204.300 C 199.822 201.583,201.178 200.150,200.561 201.758 " stroke="none" fill="#db8ba3" fill-rule="evenodd"></path><path id="path3" d="M165.773 146.596 C 166.445 148.205,167.170 149.514,167.188 149.151 C 167.207 148.748,165.580 145.200,165.376 145.200 C 165.273 145.200,165.452 145.828,165.773 146.596 M166.704 154.044 C 166.101 154.900,165.687 155.600,165.783 155.600 C 166.069 155.600,168.126 152.792,167.956 152.633 C 167.870 152.554,167.307 153.188,166.704 154.044 M224.678 157.395 C 225.044 158.162,225.414 158.719,225.501 158.632 C 225.684 158.449,224.470 156.000,224.196 156.000 C 224.095 156.000,224.312 156.628,224.678 157.395 M280.454 156.821 C 280.425 157.383,279.817 158.635,279.105 159.604 C 278.392 160.572,278.002 161.246,278.238 161.100 C 279.260 160.469,280.856 157.621,280.687 156.732 C 280.515 155.833,280.507 155.836,280.454 156.821 M160.200 157.200 C 159.696 157.417,159.622 157.544,160.000 157.544 C 160.330 157.544,160.960 157.389,161.400 157.200 C 161.904 156.983,161.978 156.856,161.600 156.856 C 161.270 156.856,160.640 157.011,160.200 157.200 M155.660 158.449 C 154.263 158.892,153.189 159.322,153.273 159.407 C 153.358 159.491,154.771 159.134,156.413 158.613 C 158.056 158.091,159.130 157.661,158.800 157.655 C 158.470 157.649,157.057 158.007,155.660 158.449 M225.600 160.426 C 225.600 161.101,225.410 162.046,225.178 162.526 C 224.770 163.370,224.777 163.374,225.378 162.624 C 225.943 161.918,226.278 159.200,225.800 159.200 C 225.690 159.200,225.600 159.752,225.600 160.426 M274.083 166.900 C 271.874 170.199,271.280 171.201,271.887 170.600 C 272.524 169.969,276.447 164.000,276.224 164.000 C 276.114 164.000,275.151 165.305,274.083 166.900 M129.600 165.607 C 126.630 166.218,124.560 166.732,125.000 166.749 C 125.993 166.789,135.630 164.903,135.921 164.612 C 136.252 164.281,135.387 164.417,129.600 165.607 M368.556 165.500 C 368.547 165.885,368.418 166.830,368.268 167.600 C 368.086 168.538,368.112 168.736,368.346 168.200 C 368.939 166.846,369.282 164.800,368.917 164.800 C 368.727 164.800,368.564 165.115,368.556 165.500 M220.728 169.500 C 218.250 173.238,217.380 174.670,217.872 174.200 C 218.628 173.478,222.969 166.800,222.682 166.800 C 222.592 166.800,221.712 168.015,220.728 169.500 M338.489 171.621 C 336.179 172.081,333.160 173.778,331.536 175.527 L 330.200 176.966 331.944 175.444 C 335.291 172.524,341.494 170.854,343.085 172.445 C 343.589 172.949,344.403 172.596,344.394 171.876 C 344.390 171.577,344.252 171.614,344.024 171.974 C 343.759 172.394,343.518 172.433,343.130 172.120 C 342.306 171.455,340.367 171.247,338.489 171.621 M361.337 171.632 C 359.592 171.961,356.621 173.318,356.218 173.971 C 356.088 174.182,356.813 173.889,357.830 173.321 C 359.986 172.116,364.775 171.549,365.777 172.381 C 366.419 172.913,367.204 172.634,367.194 171.876 C 367.190 171.577,367.052 171.614,366.824 171.974 C 366.563 172.388,366.312 172.431,365.930 172.131 C 365.123 171.494,363.186 171.284,361.337 171.632 M270.769 172.100 C 270.437 173.185,270.611 173.402,271.831 173.429 C 272.562 173.445,273.068 173.310,272.956 173.129 C 272.844 172.948,272.303 172.800,271.753 172.800 C 271.188 172.800,270.860 172.626,271.000 172.400 C 271.136 172.180,271.147 172.000,271.024 172.000 C 270.901 172.000,270.786 172.045,270.769 172.100 M104.216 174.300 C 102.788 176.047,102.768 176.103,103.966 175.000 C 105.113 173.944,106.261 172.400,105.899 172.400 C 105.828 172.400,105.070 173.255,104.216 174.300 M85.730 173.882 C 86.437 174.064,86.437 174.098,85.730 174.935 L 85.000 175.800 85.900 175.038 C 86.395 174.619,86.800 174.124,86.800 173.938 C 86.800 173.752,86.395 173.621,85.900 173.646 C 85.177 173.684,85.144 173.730,85.730 173.882 M354.175 175.700 L 353.000 177.000 354.300 175.825 C 355.015 175.179,355.600 174.594,355.600 174.525 C 355.600 174.216,355.270 174.488,354.175 175.700 M98.591 179.700 L 95.400 183.000 98.700 179.809 C 100.515 178.055,102.000 176.570,102.000 176.509 C 102.000 176.218,101.554 176.635,98.591 179.700 M287.055 177.975 C 287.215 178.775,287.068 179.568,286.625 180.295 L 285.953 181.400 286.776 180.456 C 287.634 179.472,287.889 177.426,287.206 177.004 C 286.962 176.853,286.904 177.222,287.055 177.975 M213.055 181.200 C 212.031 182.740,211.278 184.000,211.382 184.000 C 211.485 184.000,212.266 182.965,213.115 181.700 C 214.998 178.899,215.295 178.400,215.082 178.400 C 214.992 178.400,214.080 179.660,213.055 181.200 M328.800 180.069 C 328.800 180.251,329.340 180.400,330.000 180.400 C 330.660 180.400,331.200 180.330,331.200 180.245 C 331.200 180.160,330.660 180.012,330.000 179.915 C 329.340 179.818,328.800 179.887,328.800 180.069 M352.600 180.000 C 351.891 180.305,351.925 180.347,352.900 180.372 C 353.505 180.387,354.000 180.220,354.000 180.000 C 354.000 179.531,353.693 179.531,352.600 180.000 M116.501 182.200 C 116.505 183.080,116.587 183.393,116.683 182.895 C 116.779 182.398,116.775 181.678,116.675 181.295 C 116.575 180.913,116.496 181.320,116.501 182.200 M283.700 181.476 C 284.085 181.576,284.715 181.576,285.100 181.476 C 285.485 181.375,285.170 181.293,284.400 181.293 C 283.630 181.293,283.315 181.375,283.700 181.476 M270.719 181.898 C 272.544 181.972,275.424 181.972,277.119 181.897 C 278.814 181.822,277.320 181.761,273.800 181.762 C 270.280 181.762,268.894 181.824,270.719 181.898 M244.105 182.287 C 244.714 182.379,245.614 182.377,246.105 182.282 C 246.597 182.187,246.100 182.111,245.000 182.114 C 243.900 182.117,243.497 182.195,244.105 182.287 M117.089 184.819 C 117.226 185.342,116.959 186.030,116.352 186.719 L 115.400 187.800 116.500 186.830 C 117.591 185.868,117.935 184.654,117.237 184.223 C 117.038 184.100,116.971 184.368,117.089 184.819 M260.329 188.100 C 257.463 192.418,256.558 193.890,257.073 193.400 C 257.829 192.680,262.970 184.800,262.684 184.800 C 262.594 184.800,261.534 186.285,260.329 188.100 M362.305 188.283 C 362.802 188.379,363.522 188.375,363.905 188.275 C 364.287 188.175,363.880 188.096,363.000 188.101 C 362.120 188.105,361.807 188.187,362.305 188.283 M350.900 188.697 C 352.385 188.774,354.815 188.774,356.300 188.697 C 357.785 188.620,356.570 188.557,353.600 188.557 C 350.630 188.557,349.415 188.620,350.900 188.697 M206.485 191.100 C 204.602 193.901,204.305 194.400,204.518 194.400 C 204.608 194.400,205.520 193.140,206.545 191.600 C 207.569 190.060,208.322 188.800,208.218 188.800 C 208.115 188.800,207.334 189.835,206.485 191.100 M304.300 189.082 C 304.795 189.178,305.605 189.178,306.100 189.082 C 306.595 188.987,306.190 188.909,305.200 188.909 C 304.210 188.909,303.805 188.987,304.300 189.082 M321.474 191.500 C 319.186 195.089,319.122 195.200,319.348 195.200 C 319.455 195.200,320.378 193.861,321.398 192.224 C 322.418 190.588,323.556 189.168,323.926 189.071 C 324.533 188.910,324.531 188.888,323.897 188.846 C 323.442 188.816,322.590 189.749,321.474 191.500 M106.200 192.000 C 103.780 192.612,102.057 193.132,102.372 193.156 C 103.088 193.211,111.600 191.190,111.600 190.965 C 111.600 190.686,110.763 190.847,106.200 192.000 M342.773 193.900 C 341.839 195.385,340.812 197.005,340.491 197.500 C 340.170 197.995,340.001 198.400,340.115 198.400 C 340.230 198.400,341.210 197.005,342.294 195.300 C 344.772 191.402,344.888 191.200,344.659 191.200 C 344.556 191.200,343.707 192.415,342.773 193.900 M162.812 193.878 C 162.805 194.140,163.205 194.779,163.700 195.297 C 164.195 195.815,164.400 195.960,164.156 195.620 C 163.912 195.279,163.512 194.640,163.268 194.200 C 163.024 193.760,162.819 193.615,162.812 193.878 M95.505 194.283 C 96.002 194.379,96.722 194.375,97.105 194.275 C 97.487 194.175,97.080 194.096,96.200 194.101 C 95.320 194.105,95.007 194.187,95.505 194.283 M254.710 196.500 C 251.941 200.433,251.026 201.849,251.676 201.200 C 252.475 200.401,256.908 194.000,256.663 194.000 C 256.557 194.000,255.678 195.125,254.710 196.500 M88.300 194.689 C 89.015 194.778,90.185 194.778,90.900 194.689 C 91.615 194.601,91.030 194.528,89.600 194.528 C 88.170 194.528,87.585 194.601,88.300 194.689 M84.360 196.114 C 83.234 197.073,80.208 200.400,80.462 200.400 C 80.547 200.400,81.766 199.230,83.170 197.800 C 85.785 195.136,86.201 194.547,84.360 196.114 M275.000 200.115 C 272.617 203.491,271.302 205.553,271.884 205.000 C 272.599 204.321,277.287 197.553,277.139 197.413 C 277.063 197.340,276.100 198.556,275.000 200.115 M120.926 198.007 C 121.545 198.192,122.273 198.492,122.544 198.672 C 122.816 198.853,122.694 198.685,122.275 198.300 C 121.855 197.915,121.126 197.615,120.656 197.634 C 119.962 197.662,120.013 197.733,120.926 198.007 M187.269 197.991 C 187.856 198.169,188.576 198.437,188.869 198.587 C 189.161 198.737,189.051 198.576,188.624 198.230 C 188.196 197.883,187.476 197.615,187.024 197.634 C 186.363 197.662,186.411 197.733,187.269 197.991 M116.300 199.226 C 115.035 199.879,114.000 200.503,114.000 200.612 C 114.000 200.722,115.035 200.294,116.300 199.662 C 117.565 199.030,118.870 198.412,119.200 198.288 C 119.733 198.088,119.733 198.062,119.200 198.051 C 118.870 198.044,117.565 198.573,116.300 199.226 M137.295 198.897 C 135.697 199.351,134.469 199.802,134.565 199.899 C 134.662 199.995,135.727 199.787,136.932 199.437 C 139.791 198.606,139.841 198.618,138.522 199.837 L 137.400 200.873 138.636 200.055 C 139.984 199.163,141.105 197.979,140.549 198.035 C 140.357 198.055,138.893 198.442,137.295 198.897 M151.300 198.986 C 150.145 199.523,149.200 200.066,149.200 200.192 C 149.200 200.318,149.768 200.127,150.462 199.768 C 151.157 199.409,152.372 198.877,153.162 198.586 C 153.953 198.295,154.330 198.045,154.000 198.032 C 153.670 198.019,152.455 198.448,151.300 198.986 M182.435 198.691 C 180.867 199.463,176.788 203.132,175.525 204.906 C 175.054 205.566,176.094 204.676,177.835 202.926 C 179.576 201.176,181.810 199.361,182.800 198.892 C 183.790 198.424,184.420 198.035,184.200 198.029 C 183.980 198.023,183.186 198.321,182.435 198.691 M219.600 199.200 C 218.830 199.622,218.344 199.974,218.520 199.983 C 218.944 200.005,221.200 198.832,221.200 198.590 C 221.200 198.328,221.177 198.337,219.600 199.200 M315.173 201.500 C 314.239 202.985,313.212 204.605,312.891 205.100 C 312.570 205.595,312.403 206.000,312.518 206.000 C 312.634 206.000,313.493 204.785,314.427 203.300 C 315.361 201.815,316.388 200.195,316.709 199.700 C 317.030 199.205,317.197 198.800,317.082 198.800 C 316.966 198.800,316.107 200.015,315.173 201.500 M169.355 199.633 C 168.550 199.867,167.716 200.597,166.995 201.697 C 166.381 202.634,165.148 204.300,164.253 205.400 C 163.358 206.500,163.047 207.040,163.561 206.600 C 164.075 206.160,165.322 204.630,166.334 203.200 C 168.405 200.272,168.682 200.015,169.781 200.006 C 170.429 200.001,170.292 200.290,168.983 201.700 C 167.660 203.123,167.745 203.076,169.501 201.415 C 172.134 198.925,172.126 198.830,169.355 199.633 M132.364 201.852 C 131.664 202.870,130.295 204.715,129.323 205.952 C 127.732 207.974,127.708 208.035,129.077 206.561 C 130.687 204.828,134.195 200.000,133.845 200.000 C 133.731 200.000,133.065 200.833,132.364 201.852 M78.773 202.300 C 76.482 204.772,75.449 206.000,75.659 206.000 C 75.769 206.000,76.892 204.830,78.155 203.400 C 80.626 200.603,81.058 199.833,78.773 202.300 M199.446 202.200 C 199.091 202.750,198.509 203.650,198.154 204.200 C 197.799 204.750,197.604 205.200,197.721 205.200 C 197.839 205.200,198.345 204.536,198.847 203.723 L 199.760 202.247 200.244 203.423 C 200.726 204.597,200.727 204.595,200.664 202.902 C 200.590 200.945,200.347 200.805,199.446 202.200 M141.818 206.100 C 139.552 208.355,137.402 210.785,137.039 211.500 C 136.082 213.386,136.474 213.095,137.943 210.827 C 138.647 209.742,140.860 207.312,142.863 205.427 C 144.865 203.542,146.376 202.000,146.221 202.000 C 146.065 202.000,144.084 203.845,141.818 206.100 M294.887 204.100 C 293.427 206.256,293.112 206.800,293.320 206.800 C 293.412 206.800,294.144 205.810,294.947 204.600 C 295.751 203.390,296.325 202.400,296.223 202.400 C 296.122 202.400,295.520 203.165,294.887 204.100 M335.577 205.300 C 334.867 206.455,334.021 207.805,333.697 208.300 C 333.373 208.795,333.203 209.200,333.318 209.200 C 333.434 209.200,334.232 208.075,335.093 206.700 C 337.204 203.326,337.275 203.200,337.058 203.200 C 336.954 203.200,336.287 204.145,335.577 205.300 M165.955 205.100 C 164.681 206.508,163.856 207.600,164.066 207.600 C 164.157 207.600,164.908 206.790,165.735 205.800 C 167.387 203.824,167.535 203.353,165.955 205.100 M246.800 208.000 C 245.469 209.980,244.469 211.600,244.579 211.600 C 244.689 211.600,245.869 209.980,247.200 208.000 C 248.531 206.020,249.531 204.400,249.421 204.400 C 249.311 204.400,248.131 206.020,246.800 208.000 M106.773 206.300 C 104.424 208.835,103.451 210.000,103.681 210.000 C 103.803 210.000,104.930 208.830,106.185 207.400 C 108.646 204.597,109.048 203.844,106.773 206.300 M131.540 206.464 C 130.891 207.159,130.165 208.104,129.926 208.564 C 129.687 209.024,129.575 209.310,129.678 209.200 C 131.892 206.819,133.241 205.200,133.011 205.200 C 132.852 205.200,132.190 205.769,131.540 206.464 M173.438 208.100 C 172.038 210.490,171.195 212.619,171.227 213.687 C 171.242 214.206,171.466 213.812,171.746 212.776 C 172.016 211.773,172.816 209.928,173.522 208.676 C 174.229 207.424,174.723 206.400,174.620 206.400 C 174.518 206.400,173.986 207.165,173.438 208.100 M252.800 210.432 C 248.560 214.073,246.178 216.322,248.844 214.167 C 252.698 211.052,257.593 206.801,257.314 206.812 C 257.141 206.819,255.110 208.448,252.800 210.432 M158.792 211.500 L 155.000 215.400 158.900 211.608 C 161.045 209.522,162.800 207.767,162.800 207.708 C 162.800 207.418,162.314 207.878,158.792 211.500 M268.800 209.200 C 268.330 209.860,268.036 210.400,268.146 210.400 C 268.256 210.400,268.730 209.860,269.200 209.200 C 269.670 208.540,269.964 208.000,269.854 208.000 C 269.744 208.000,269.270 208.540,268.800 209.200 M123.200 212.494 C 120.890 214.724,120.080 215.630,121.400 214.507 C 123.766 212.493,127.945 208.381,127.585 208.420 C 127.483 208.431,125.510 210.264,123.200 212.494 M229.267 210.876 C 229.184 212.704,229.661 213.055,230.647 211.891 L 231.400 211.000 230.526 211.738 C 229.654 212.475,229.653 212.474,229.494 210.938 L 229.334 209.400 229.267 210.876 M308.777 211.700 C 308.067 212.855,307.221 214.205,306.897 214.700 C 306.573 215.195,306.403 215.600,306.518 215.600 C 306.634 215.600,307.432 214.475,308.293 213.100 C 310.404 209.726,310.475 209.600,310.258 209.600 C 310.154 209.600,309.487 210.545,308.777 211.700 M70.000 212.800 C 69.079 213.900,68.416 214.800,68.526 214.800 C 68.636 214.800,69.479 213.900,70.400 212.800 C 71.321 211.700,71.984 210.800,71.874 210.800 C 71.764 210.800,70.921 211.700,70.000 212.800 M193.023 212.437 C 191.643 214.523,191.868 214.703,194.260 213.430 C 195.323 212.863,195.925 212.406,195.597 212.413 C 195.269 212.420,194.651 212.690,194.224 213.013 C 192.929 213.992,192.687 213.677,193.600 212.200 C 194.804 210.252,194.344 210.441,193.023 212.437 M216.309 211.083 L 217.217 211.258 216.309 212.064 C 215.507 212.774,215.554 212.768,216.700 212.007 C 217.415 211.533,218.000 211.068,218.000 210.973 C 218.000 210.878,217.415 210.825,216.700 210.854 C 215.745 210.894,215.641 210.955,216.309 211.083 M266.581 212.430 C 264.779 215.285,264.860 215.593,267.200 214.768 C 268.198 214.416,268.198 214.415,267.100 214.552 C 265.744 214.721,265.730 214.412,267.005 212.392 C 267.558 211.516,267.920 210.800,267.810 210.800 C 267.700 210.800,267.147 211.534,266.581 212.430 M198.435 213.635 C 197.096 214.754,196.000 215.766,196.000 215.883 C 196.000 216.001,197.035 215.233,198.300 214.177 C 201.438 211.557,201.391 211.600,201.115 211.600 C 200.980 211.600,199.774 212.516,198.435 213.635 M245.376 212.187 C 244.440 212.895,243.845 212.974,244.238 212.338 C 244.416 212.050,244.348 211.985,244.055 212.166 C 243.798 212.325,243.691 212.623,243.817 212.828 C 243.944 213.032,243.857 213.200,243.624 213.200 C 243.391 213.200,243.200 213.383,243.200 213.606 C 243.200 213.829,243.920 213.535,244.800 212.953 C 246.218 212.014,246.670 211.600,246.276 211.600 C 246.209 211.600,245.804 211.864,245.376 212.187 M230.982 214.312 C 230.093 215.130,229.643 215.602,229.982 215.361 C 231.466 214.306,231.745 214.244,231.467 215.034 C 231.215 215.753,231.237 215.751,231.828 215.000 C 233.778 212.525,233.326 212.156,230.982 214.312 M287.459 217.577 C 286.657 219.333,286.010 220.911,286.023 221.084 C 286.035 221.258,286.757 219.886,287.626 218.037 C 288.495 216.187,289.142 214.608,289.062 214.529 C 288.983 214.450,288.262 215.821,287.459 217.577 M329.122 215.700 C 328.808 216.195,328.147 217.320,327.653 218.200 C 326.595 220.082,327.750 218.617,329.123 216.334 C 330.097 214.714,330.096 214.162,329.122 215.700 M192.000 218.661 C 189.562 220.449,188.762 220.834,187.728 220.714 C 187.028 220.633,186.544 220.710,186.652 220.884 C 187.310 221.949,193.780 218.774,195.012 216.781 C 195.367 216.207,195.236 216.288,192.000 218.661 M271.900 219.412 C 269.755 220.823,268.000 222.068,268.000 222.180 C 268.000 222.421,274.743 218.120,275.586 217.341 C 276.635 216.371,275.863 216.805,271.900 219.412 M148.466 219.806 C 144.993 222.158,143.390 223.378,144.800 222.595 C 146.418 221.697,152.002 217.920,152.210 217.584 C 152.547 217.038,152.580 217.019,148.466 219.806 M63.762 220.500 C 62.481 222.095,61.714 223.175,62.058 222.900 C 62.791 222.313,66.538 217.600,66.272 217.600 C 66.172 217.600,65.042 218.905,63.762 220.500 M114.687 219.368 C 112.306 221.016,111.836 221.493,113.400 220.672 C 114.571 220.057,117.198 218.021,116.800 218.036 C 116.690 218.041,115.739 218.640,114.687 219.368 M222.000 219.432 C 220.130 220.167,218.821 220.776,219.091 220.784 C 219.779 220.806,224.918 218.842,225.380 218.380 C 225.859 217.901,226.024 217.850,222.000 219.432 M240.404 220.628 C 236.586 223.853,236.120 224.516,239.684 221.652 C 242.344 219.516,243.581 218.352,243.124 218.418 C 243.056 218.427,241.832 219.422,240.404 220.628 M182.800 220.460 L 181.400 221.699 182.925 220.610 C 184.421 219.542,184.467 219.535,185.325 220.261 L 186.200 221.000 185.438 220.100 C 184.481 218.970,184.485 218.969,182.800 220.460 M302.637 221.616 C 302.049 222.504,300.990 223.584,300.284 224.014 C 299.578 224.445,299.185 224.798,299.411 224.799 C 300.435 224.802,302.133 223.225,303.393 221.100 C 304.389 219.419,303.845 219.791,302.637 221.616 M266.200 223.450 C 265.481 224.062,265.334 224.305,265.833 224.057 C 266.566 223.693,267.941 222.376,267.549 222.414 C 267.467 222.422,266.860 222.888,266.200 223.450 M58.463 227.100 C 56.690 229.282,56.486 229.626,57.773 228.260 C 59.515 226.413,61.409 224.000,61.118 224.000 C 61.043 224.000,59.849 225.395,58.463 227.100 M102.505 224.687 C 103.114 224.779,104.014 224.777,104.505 224.682 C 104.997 224.587,104.500 224.511,103.400 224.514 C 102.300 224.517,101.897 224.595,102.505 224.687 M136.900 224.687 C 137.505 224.778,138.495 224.778,139.100 224.687 C 139.705 224.595,139.210 224.520,138.000 224.520 C 136.790 224.520,136.295 224.595,136.900 224.687 M172.505 224.687 C 173.114 224.779,174.014 224.777,174.505 224.682 C 174.997 224.587,174.500 224.511,173.400 224.514 C 172.300 224.517,171.897 224.595,172.505 224.687 M202.305 224.683 C 202.802 224.779,203.522 224.775,203.905 224.675 C 204.287 224.575,203.880 224.496,203.000 224.501 C 202.120 224.505,201.807 224.587,202.305 224.683 M285.600 226.000 C 284.390 226.639,282.950 227.195,282.400 227.236 C 281.467 227.304,281.460 227.320,282.289 227.481 C 283.104 227.638,286.882 226.049,287.780 225.172 C 288.369 224.595,287.975 224.745,285.600 226.000 M295.107 225.090 C 295.826 225.179,296.906 225.177,297.507 225.086 C 298.108 224.995,297.520 224.922,296.200 224.924 C 294.880 224.926,294.388 225.001,295.107 225.090 M317.907 225.090 C 318.626 225.179,319.706 225.177,320.307 225.086 C 320.908 224.995,320.320 224.922,319.000 224.924 C 317.680 224.926,317.188 225.001,317.907 225.090 M54.175 232.100 L 53.000 233.400 54.300 232.225 C 55.512 231.130,55.784 230.800,55.475 230.800 C 55.406 230.800,54.821 231.385,54.175 232.100 M49.749 237.079 C 48.017 238.992,46.804 240.435,47.052 240.285 C 47.625 239.939,53.352 233.600,53.092 233.600 C 52.985 233.600,51.481 235.166,49.749 237.079 M44.361 243.300 C 41.108 247.140,41.061 247.200,41.302 247.200 C 41.426 247.200,42.720 245.760,44.176 244.000 C 45.632 242.240,46.746 240.800,46.651 240.800 C 46.557 240.800,45.526 241.925,44.361 243.300 " stroke="none" fill="#849d9d" fill-rule="evenodd"></path><path id="path4" d="M158.870 145.279 C 157.039 145.716,155.618 146.151,155.713 146.246 C 155.808 146.342,157.449 146.055,159.358 145.610 C 163.185 144.717,165.024 144.592,165.399 145.198 C 165.534 145.417,166.040 145.793,166.522 146.033 C 167.121 146.332,167.019 146.147,166.200 145.450 C 164.745 144.212,163.470 144.182,158.870 145.279 M152.475 147.073 C 151.526 147.409,150.821 147.754,150.907 147.840 C 150.993 147.927,152.040 147.651,153.232 147.228 C 154.424 146.805,155.130 146.460,154.800 146.461 C 154.470 146.462,153.424 146.738,152.475 147.073 M137.600 151.812 C 135.950 152.323,134.870 152.753,135.200 152.768 C 135.530 152.783,137.150 152.364,138.800 151.837 C 140.450 151.310,141.530 150.880,141.200 150.882 C 140.870 150.883,139.250 151.302,137.600 151.812 M272.901 153.457 L 271.800 154.478 272.935 153.654 L 274.070 152.830 276.135 153.614 C 277.271 154.045,278.740 154.793,279.400 155.276 C 280.249 155.897,280.433 155.948,280.029 155.450 C 278.297 153.317,274.267 152.191,272.901 153.457 M132.000 153.200 C 131.208 153.454,131.167 153.520,131.800 153.520 C 132.240 153.520,133.050 153.376,133.600 153.200 C 134.392 152.946,134.433 152.880,133.800 152.880 C 133.360 152.880,132.550 153.024,132.000 153.200 M221.192 153.646 C 221.737 153.864,222.466 154.258,222.811 154.521 C 223.157 154.784,223.015 154.595,222.497 154.100 C 221.979 153.605,221.250 153.211,220.878 153.225 C 220.427 153.242,220.532 153.383,221.192 153.646 M219.157 154.100 C 218.480 154.668,217.425 156.000,217.652 156.000 C 217.735 156.000,218.312 155.460,218.935 154.800 C 220.100 153.566,220.211 153.216,219.157 154.100 M102.020 159.212 C 99.941 160.526,98.392 161.600,98.577 161.600 C 98.968 161.600,106.000 157.209,106.000 156.964 C 106.000 156.700,105.972 156.716,102.020 159.212 M109.800 158.189 C 107.652 158.897,108.497 158.924,111.000 158.228 C 112.100 157.922,112.640 157.669,112.200 157.667 C 111.760 157.664,110.680 157.899,109.800 158.189 M213.479 162.100 C 210.268 166.998,209.644 168.035,210.289 167.400 C 210.638 167.056,215.703 159.534,216.552 158.100 C 216.714 157.825,216.753 157.600,216.638 157.600 C 216.523 157.600,215.102 159.625,213.479 162.100 M269.119 158.300 C 268.169 159.398,264.225 165.471,264.896 164.800 C 265.652 164.045,270.127 157.600,269.895 157.600 C 269.801 157.600,269.452 157.915,269.119 158.300 M227.301 161.800 C 227.305 162.680,227.387 162.993,227.483 162.495 C 227.579 161.998,227.575 161.278,227.475 160.895 C 227.375 160.513,227.296 160.920,227.301 161.800 M83.456 166.182 C 81.727 166.937,80.197 167.684,80.056 167.841 C 79.915 167.999,80.070 168.021,80.400 167.891 C 82.099 167.222,87.022 165.083,87.167 164.952 C 87.671 164.493,86.236 164.969,83.456 166.182 M333.500 165.826 C 332.455 166.370,331.600 166.905,331.600 167.014 C 331.600 167.193,335.560 165.323,335.967 164.952 C 336.462 164.501,335.161 164.962,333.500 165.826 M356.300 165.826 C 355.255 166.370,354.400 166.905,354.400 167.014 C 354.400 167.193,358.360 165.323,358.767 164.952 C 359.262 164.501,357.961 164.962,356.300 165.826 M262.706 167.500 C 262.366 167.885,261.337 169.370,260.420 170.800 L 258.753 173.400 252.476 173.615 L 246.200 173.831 252.490 173.915 L 258.779 174.000 261.200 170.400 C 263.539 166.922,263.999 166.036,262.706 167.500 M208.337 169.900 C 208.014 170.285,207.446 171.095,207.075 171.700 C 204.999 175.083,205.026 175.030,205.688 174.400 C 206.358 173.763,209.329 169.200,209.074 169.200 C 208.992 169.200,208.660 169.515,208.337 169.900 M323.952 172.690 C 321.961 174.609,320.142 176.544,319.911 176.990 C 319.679 177.435,320.241 176.955,321.159 175.922 C 322.078 174.889,324.018 172.954,325.472 171.622 C 326.926 170.290,327.993 169.200,327.844 169.200 C 327.695 169.200,325.943 170.770,323.952 172.690 M347.200 172.074 C 346.210 172.976,345.760 173.524,346.200 173.292 C 346.952 172.894,349.552 170.381,349.175 170.416 C 349.079 170.425,348.190 171.171,347.200 172.074 M70.775 172.388 C 69.552 173.020,68.295 173.866,67.982 174.268 C 67.444 174.961,67.456 174.965,68.207 174.346 C 68.643 173.986,69.945 173.218,71.100 172.639 C 72.255 172.060,73.200 171.500,73.200 171.393 C 73.200 171.128,73.267 171.101,70.775 172.388 M273.214 171.974 C 272.521 173.269,272.660 173.311,277.004 173.118 C 280.201 172.976,281.424 173.067,282.104 173.497 L 283.000 174.064 282.129 173.292 C 281.354 172.604,280.809 172.541,277.185 172.715 C 273.122 172.911,273.113 172.909,273.570 172.056 C 273.822 171.585,273.938 171.200,273.828 171.200 C 273.718 171.200,273.442 171.548,273.214 171.974 M239.300 174.291 C 240.125 174.378,241.475 174.378,242.300 174.291 C 243.125 174.205,242.450 174.134,240.800 174.134 C 239.150 174.134,238.475 174.205,239.300 174.291 M234.700 174.676 C 234.315 174.776,234.000 175.032,234.000 175.243 C 234.000 175.465,234.382 175.430,234.900 175.160 C 236.400 174.379,236.345 174.246,234.700 174.676 M105.178 176.300 L 103.800 177.800 105.300 176.422 C 106.125 175.663,106.800 174.988,106.800 174.922 C 106.800 174.616,106.462 174.904,105.178 176.300 M84.732 176.300 C 82.916 178.449,81.057 180.921,81.421 180.702 C 81.902 180.414,85.740 175.600,85.489 175.600 C 85.398 175.600,85.058 175.915,84.732 176.300 M342.113 178.100 L 340.972 179.800 335.986 180.019 L 331.000 180.238 336.000 180.316 L 341.000 180.395 341.980 178.897 C 342.519 178.074,343.126 177.175,343.329 176.900 C 343.532 176.625,343.598 176.400,343.475 176.400 C 343.353 176.400,342.740 177.165,342.113 178.100 M234.883 177.975 C 235.203 178.511,236.259 179.569,237.232 180.326 C 238.204 181.083,238.460 181.214,237.800 180.617 C 237.140 180.020,236.083 178.962,235.452 178.266 C 234.605 177.332,234.455 177.256,234.883 177.975 M101.600 179.400 C 100.628 180.390,99.923 181.200,100.033 181.200 C 100.143 181.200,101.028 180.390,102.000 179.400 C 102.972 178.410,103.677 177.600,103.567 177.600 C 103.457 177.600,102.572 178.410,101.600 179.400 M200.707 181.500 C 197.743 185.988,197.492 186.400,197.721 186.400 C 197.814 186.400,199.053 184.645,200.476 182.500 C 203.494 177.950,203.708 177.600,203.465 177.600 C 203.365 177.600,202.123 179.355,200.707 181.500 M111.400 179.394 C 108.291 180.071,105.618 180.886,107.400 180.614 C 108.060 180.513,109.834 180.165,111.343 179.841 C 114.079 179.254,116.000 179.480,116.000 180.390 C 116.000 180.616,116.220 180.800,116.489 180.800 C 117.185 180.800,115.570 179.327,114.600 179.077 C 114.160 178.964,112.720 179.107,111.400 179.394 M288.800 179.911 C 288.800 180.302,288.516 181.067,288.168 181.611 L 287.536 182.600 288.368 181.656 C 289.109 180.815,289.524 179.200,289.000 179.200 C 288.890 179.200,288.800 179.520,288.800 179.911 M354.006 179.700 C 354.002 180.210,354.299 180.387,355.100 180.354 C 355.943 180.318,356.013 180.261,355.400 180.107 C 354.960 179.997,354.468 179.703,354.306 179.454 C 354.120 179.166,354.010 179.256,354.006 179.700 M358.371 179.897 C 359.575 179.980,361.001 180.364,361.571 180.758 C 363.000 181.746,363.600 182.076,363.600 181.877 C 363.600 181.026,360.192 179.608,358.309 179.674 L 356.200 179.748 358.371 179.897 M312.307 181.090 C 313.026 181.179,314.106 181.177,314.707 181.086 C 315.308 180.995,314.720 180.922,313.400 180.924 C 312.080 180.926,311.588 181.001,312.307 181.090 M302.500 181.494 C 303.545 181.576,305.255 181.576,306.300 181.494 C 307.345 181.412,306.490 181.344,304.400 181.344 C 302.310 181.344,301.455 181.412,302.500 181.494 M118.000 183.776 C 118.000 184.533,118.138 185.238,118.307 185.343 C 118.476 185.447,118.548 184.828,118.465 183.966 C 118.281 182.032,118.000 181.918,118.000 183.776 M273.891 183.089 C 274.601 183.177,275.861 183.179,276.691 183.092 C 277.521 183.005,276.940 182.933,275.400 182.931 C 273.860 182.929,273.181 183.000,273.891 183.089 M76.817 185.785 L 74.633 188.200 76.998 185.914 C 78.298 184.657,79.281 183.571,79.181 183.500 C 79.082 183.429,78.017 184.457,76.817 185.785 M297.616 183.697 C 297.596 184.550,298.909 186.104,300.792 187.457 C 302.055 188.365,302.029 188.312,300.535 186.935 C 299.619 186.091,298.592 184.860,298.251 184.200 C 297.843 183.408,297.627 183.237,297.616 183.697 M248.146 189.700 C 245.945 192.890,244.038 196.028,244.683 195.400 C 245.421 194.681,250.566 186.800,250.297 186.800 C 250.214 186.800,249.246 188.105,248.146 189.700 M224.305 188.683 C 224.802 188.779,225.522 188.775,225.905 188.675 C 226.287 188.575,225.880 188.496,225.000 188.501 C 224.120 188.505,223.807 188.587,224.305 188.683 M356.300 189.882 C 356.795 189.978,357.605 189.978,358.100 189.882 C 358.595 189.787,358.190 189.709,357.200 189.709 C 356.210 189.709,355.805 189.787,356.300 189.882 M306.100 190.276 C 306.485 190.376,307.115 190.376,307.500 190.276 C 307.885 190.175,307.570 190.093,306.800 190.093 C 306.030 190.093,305.715 190.175,306.100 190.276 M328.500 190.676 C 328.885 190.776,329.515 190.776,329.900 190.676 C 330.285 190.575,329.970 190.493,329.200 190.493 C 328.430 190.493,328.115 190.575,328.500 190.676 M63.894 191.982 C 61.480 192.926,59.044 194.984,59.722 195.507 C 60.520 196.123,61.600 196.399,61.600 195.987 C 61.600 195.774,61.240 195.600,60.800 195.600 C 58.807 195.600,61.317 193.224,64.388 192.204 C 65.494 191.836,66.400 191.460,66.400 191.368 C 66.400 191.081,65.866 191.212,63.894 191.982 M192.900 191.808 C 193.589 192.559,193.611 192.559,194.300 191.808 C 194.967 191.080,194.967 191.069,194.300 191.571 C 193.721 192.007,193.479 192.007,192.900 191.571 C 192.233 191.069,192.233 191.080,192.900 191.808 M210.879 192.786 C 209.075 193.658,207.600 194.470,207.600 194.591 C 207.600 194.711,208.815 194.212,210.300 193.481 C 211.785 192.750,213.450 191.950,214.000 191.703 C 214.550 191.456,214.810 191.242,214.579 191.227 C 214.347 191.212,212.682 191.914,210.879 192.786 M270.200 191.464 C 271.993 191.846,275.851 193.334,276.600 193.932 L 277.400 194.570 276.600 193.731 C 275.692 192.779,271.619 191.176,270.285 191.246 C 269.484 191.288,269.476 191.309,270.200 191.464 M308.728 193.900 C 306.250 197.638,305.380 199.070,305.872 198.600 C 306.628 197.878,310.969 191.200,310.682 191.200 C 310.592 191.200,309.712 192.415,308.728 193.900 M114.801 192.638 C 113.372 193.188,112.039 193.801,111.840 194.000 C 111.641 194.199,112.811 193.852,114.439 193.230 C 116.068 192.608,117.670 192.000,118.000 191.881 C 118.533 191.687,118.533 191.662,118.000 191.651 C 117.670 191.645,116.231 192.089,114.801 192.638 M268.332 192.100 C 267.694 192.614,265.039 196.400,265.317 196.400 C 265.402 196.400,266.310 195.320,267.335 194.000 C 269.250 191.535,269.408 191.234,268.332 192.100 M147.362 193.588 C 145.582 194.457,143.872 195.483,143.562 195.868 C 143.189 196.333,143.454 196.250,144.352 195.620 C 145.096 195.098,147.076 194.072,148.752 193.341 C 150.428 192.609,151.530 192.009,151.200 192.009 C 150.870 192.008,149.143 192.719,147.362 193.588 M179.700 193.000 C 178.545 193.525,177.600 194.045,177.600 194.155 C 177.600 194.266,178.545 193.942,179.700 193.436 C 180.855 192.930,182.070 192.415,182.400 192.290 C 182.933 192.088,182.933 192.062,182.400 192.055 C 182.070 192.050,180.855 192.476,179.700 193.000 M89.700 195.876 C 90.085 195.976,90.715 195.976,91.100 195.876 C 91.485 195.775,91.170 195.693,90.400 195.693 C 89.630 195.693,89.315 195.775,89.700 195.876 M174.813 196.184 C 174.480 196.586,173.305 196.811,171.064 196.903 L 167.800 197.037 171.038 197.119 C 173.830 197.189,174.376 197.090,175.000 196.400 C 175.398 195.960,175.628 195.600,175.511 195.600 C 175.394 195.600,175.080 195.863,174.813 196.184 M329.292 197.300 C 327.596 199.815,326.151 202.407,327.060 201.302 C 328.030 200.125,330.855 195.600,330.621 195.600 C 330.520 195.600,329.923 196.365,329.292 197.300 M62.100 197.076 C 62.485 197.176,63.115 197.176,63.500 197.076 C 63.885 196.975,63.570 196.893,62.800 196.893 C 62.030 196.893,61.715 196.975,62.100 197.076 M84.386 199.100 L 82.200 201.400 84.500 199.214 C 86.637 197.182,86.983 196.800,86.686 196.800 C 86.624 196.800,85.589 197.835,84.386 199.100 M135.513 197.095 C 136.676 197.176,138.476 197.176,139.513 197.093 C 140.551 197.011,139.600 196.945,137.400 196.946 C 135.200 196.947,134.351 197.014,135.513 197.095 M65.575 199.100 C 62.743 202.164,61.856 203.200,62.067 203.200 C 62.186 203.200,63.403 201.940,64.772 200.400 C 67.378 197.468,67.969 196.511,65.575 199.100 M104.400 199.640 L 102.200 201.670 104.500 199.787 C 106.519 198.133,107.068 197.588,106.700 197.604 C 106.645 197.607,105.610 198.523,104.400 199.640 M263.394 199.100 C 263.010 199.705,262.225 200.733,261.648 201.385 C 260.959 202.164,260.874 202.369,261.400 201.985 C 262.511 201.173,264.795 198.000,264.269 198.000 C 264.171 198.000,263.778 198.495,263.394 199.100 M241.929 199.100 C 241.024 200.164,238.634 204.286,239.319 203.600 C 239.987 202.932,242.911 198.400,242.674 198.400 C 242.592 198.400,242.256 198.715,241.929 199.100 M187.399 199.096 C 188.058 199.193,188.730 199.481,188.893 199.736 C 189.084 200.037,189.190 199.954,189.194 199.500 C 189.199 198.946,188.887 198.813,187.700 198.860 C 186.340 198.914,186.312 198.936,187.399 199.096 M222.000 200.000 C 220.790 200.639,219.941 201.171,220.113 201.181 C 220.538 201.207,224.400 199.236,224.400 198.993 C 224.400 198.726,224.455 198.703,222.000 200.000 M304.287 200.700 C 303.725 201.525,302.720 203.137,302.053 204.282 C 301.387 205.428,300.542 206.823,300.175 207.382 C 299.808 207.942,299.608 208.400,299.730 208.400 C 299.852 208.400,300.980 206.735,302.236 204.700 C 303.493 202.665,304.784 200.595,305.106 200.100 C 306.099 198.575,305.372 199.107,304.287 200.700 M117.900 200.427 C 117.075 200.863,116.400 201.308,116.400 201.418 C 116.400 201.596,119.559 200.119,119.967 199.751 C 120.427 199.334,119.225 199.728,117.900 200.427 M282.584 202.251 C 281.762 203.489,279.908 205.784,278.463 207.351 C 276.256 209.746,276.173 209.881,277.941 208.200 C 280.536 205.734,284.972 200.000,284.285 200.000 C 284.171 200.000,283.405 201.013,282.584 202.251 M187.286 202.140 C 185.201 205.043,180.481 209.879,177.063 212.614 C 173.530 215.441,173.344 215.528,173.076 214.500 C 172.938 213.973,172.881 214.023,172.846 214.700 C 172.776 216.062,173.586 215.802,176.420 213.552 C 180.906 209.992,186.911 203.732,188.557 200.900 C 189.210 199.776,188.454 200.513,187.286 202.140 M253.600 201.600 C 253.130 202.260,252.836 202.800,252.946 202.800 C 253.056 202.800,253.530 202.260,254.000 201.600 C 254.470 200.940,254.764 200.400,254.654 200.400 C 254.544 200.400,254.070 200.940,253.600 201.600 M136.534 201.068 C 136.681 201.215,136.488 201.710,136.104 202.168 C 135.595 202.774,135.704 202.737,136.503 202.030 C 137.786 200.896,137.820 200.800,136.933 200.800 C 136.567 200.800,136.387 200.920,136.534 201.068 M179.200 203.800 C 178.228 204.790,177.523 205.600,177.633 205.600 C 177.743 205.600,178.628 204.790,179.600 203.800 C 180.572 202.810,181.277 202.000,181.167 202.000 C 181.057 202.000,180.172 202.810,179.200 203.800 M98.976 204.500 C 96.330 207.283,95.017 208.800,95.254 208.800 C 95.360 208.800,96.754 207.360,98.351 205.600 C 101.622 201.995,102.015 201.304,98.976 204.500 M133.311 204.100 C 132.476 205.180,132.355 205.592,132.940 205.368 C 133.260 205.245,133.612 204.797,133.723 204.372 C 133.958 203.474,133.850 203.403,133.311 204.100 M118.987 206.500 L 116.600 209.000 119.100 206.613 C 121.422 204.395,121.783 204.000,121.487 204.000 C 121.426 204.000,120.301 205.125,118.987 206.500 M200.209 204.785 C 199.994 205.133,200.029 205.229,200.309 205.056 C 200.548 204.909,200.847 205.119,200.976 205.524 C 201.104 205.928,201.784 206.786,202.487 207.430 L 203.764 208.600 202.582 207.162 C 201.932 206.371,201.207 205.391,200.971 204.985 C 200.630 204.397,200.474 204.357,200.209 204.785 M236.000 207.138 C 233.403 209.767,233.403 209.769,235.567 207.962 C 237.325 206.494,239.377 204.231,238.749 204.452 C 238.667 204.481,237.430 205.690,236.000 207.138 M258.306 205.588 C 257.588 206.242,257.222 206.782,257.494 206.788 C 257.765 206.795,258.575 206.265,259.294 205.612 C 260.012 204.958,260.378 204.418,260.106 204.412 C 259.835 204.405,259.025 204.935,258.306 205.588 M224.800 204.901 C 224.910 205.013,226.260 206.030,227.800 207.161 C 230.305 209.001,230.410 209.046,228.800 207.586 C 227.414 206.330,223.849 203.936,224.800 204.901 M253.896 206.608 C 252.413 207.603,251.200 208.504,251.200 208.612 C 251.200 208.719,252.460 207.969,254.000 206.945 C 256.450 205.316,257.098 204.800,256.696 204.800 C 256.638 204.800,255.378 205.614,253.896 206.608 M142.987 207.700 L 140.600 210.200 143.100 207.813 C 144.475 206.499,145.600 205.374,145.600 205.313 C 145.600 205.017,145.205 205.378,142.987 207.700 M152.800 207.240 L 150.600 209.270 152.900 207.387 C 154.919 205.733,155.468 205.188,155.100 205.204 C 155.045 205.207,154.010 206.123,152.800 207.240 M323.691 206.100 C 323.467 206.375,322.735 207.537,322.063 208.682 C 321.391 209.828,320.542 211.223,320.175 211.782 C 319.808 212.342,319.601 212.800,319.715 212.800 C 319.830 212.800,320.810 211.405,321.894 209.700 C 324.353 205.831,324.487 205.600,324.273 205.600 C 324.177 205.600,323.915 205.825,323.691 206.100 M58.571 207.300 C 56.479 209.592,55.379 210.992,56.112 210.429 C 56.881 209.838,60.177 206.000,59.916 206.000 C 59.828 206.000,59.223 206.585,58.571 207.300 M126.191 212.498 C 124.436 214.312,124.000 214.847,125.223 213.688 C 126.446 212.528,127.600 211.719,127.787 211.890 C 127.975 212.060,127.999 211.975,127.841 211.700 C 127.682 211.425,127.723 211.200,127.930 211.200 C 128.138 211.200,128.603 210.750,128.963 210.200 C 129.973 208.659,129.628 208.945,126.191 212.498 M201.784 210.817 C 201.136 211.533,201.129 211.602,201.722 211.374 C 202.095 211.231,202.400 210.943,202.400 210.734 C 202.400 210.524,202.608 210.481,202.862 210.638 C 203.148 210.815,203.215 210.748,203.038 210.462 C 202.665 209.858,202.648 209.863,201.784 210.817 M274.415 210.846 C 272.241 212.655,267.928 214.688,268.612 213.581 C 268.814 213.253,268.762 213.176,268.462 213.362 C 267.559 213.920,267.984 214.491,269.100 214.220 C 270.423 213.899,274.204 211.677,275.090 210.700 C 275.933 209.769,275.631 209.835,274.415 210.846 M93.113 211.500 C 92.354 212.371,91.485 214.019,91.682 214.215 C 91.763 214.296,92.313 213.561,92.905 212.581 C 94.046 210.691,94.111 210.356,93.113 211.500 M111.027 212.437 C 108.110 214.373,107.666 214.819,109.852 213.616 C 111.396 212.766,114.045 210.808,113.600 210.845 C 113.490 210.855,112.332 211.571,111.027 212.437 M197.497 211.234 C 197.110 211.459,196.587 211.516,196.335 211.360 C 196.052 211.185,195.986 211.253,196.162 211.538 C 196.319 211.792,196.227 212.000,195.957 212.000 C 195.687 212.000,195.570 212.103,195.696 212.229 C 195.931 212.464,198.400 211.332,198.400 210.990 C 198.400 210.734,198.315 210.758,197.497 211.234 M51.563 215.700 C 49.519 218.175,48.144 219.959,48.508 219.664 C 49.302 219.020,55.730 211.200,55.465 211.200 C 55.363 211.200,53.607 213.225,51.563 215.700 M146.976 211.584 C 146.764 211.796,145.157 212.786,143.405 213.784 C 141.653 214.783,140.399 215.600,140.618 215.600 C 141.163 215.600,147.084 212.112,147.396 211.606 C 147.714 211.093,147.479 211.081,146.976 211.584 M212.800 213.635 C 211.150 214.467,209.918 215.160,210.063 215.175 C 210.585 215.225,215.513 212.865,215.777 212.438 C 215.925 212.197,215.992 212.027,215.924 212.060 C 215.856 212.093,214.450 212.802,212.800 213.635 M254.556 214.233 C 254.171 215.769,254.689 219.261,255.409 219.976 C 255.962 220.525,255.958 220.409,255.377 219.012 C 254.936 217.953,254.774 216.719,254.891 215.312 C 255.082 213.009,254.961 212.620,254.556 214.233 M295.194 215.300 C 294.493 216.455,294.180 217.130,294.498 216.800 C 295.218 216.054,296.937 213.200,296.667 213.200 C 296.558 213.200,295.895 214.145,295.194 215.300 M126.169 215.426 C 126.022 216.211,126.058 217.204,126.251 217.633 C 126.504 218.199,126.606 217.807,126.621 216.207 C 126.646 213.637,126.539 213.452,126.169 215.426 M157.775 215.300 L 156.600 216.600 157.900 215.425 C 159.112 214.330,159.384 214.000,159.075 214.000 C 159.006 214.000,158.421 214.585,157.775 215.300 M316.902 216.900 C 315.853 218.222,314.361 220.949,315.095 220.200 C 315.939 219.339,317.785 216.400,317.482 216.400 C 317.381 216.400,317.120 216.625,316.902 216.900 M91.761 218.300 C 92.080 218.905,92.895 220.030,93.570 220.800 C 94.581 221.952,94.510 221.757,93.166 219.700 C 91.473 217.107,90.750 216.387,91.761 218.300 M290.877 219.237 C 287.994 221.480,287.931 221.906,290.793 219.805 C 292.425 218.607,294.020 217.120,293.549 217.237 C 293.467 217.257,292.265 218.157,290.877 219.237 M161.514 218.600 C 161.747 219.040,162.710 220.120,163.655 221.000 C 165.352 222.580,164.809 221.897,161.273 218.000 C 161.173 217.890,161.282 218.160,161.514 218.600 M193.968 219.900 C 193.566 220.432,193.562 220.491,193.955 220.145 C 194.353 219.793,194.760 219.980,195.735 220.963 C 196.431 221.664,196.595 221.769,196.100 221.197 C 195.605 220.624,195.200 219.941,195.200 219.678 C 195.200 218.981,194.579 219.093,193.968 219.900 M274.500 220.046 C 273.785 220.504,273.200 220.972,273.200 221.085 C 273.200 221.199,273.644 221.001,274.186 220.646 C 275.479 219.799,275.443 219.771,275.278 221.500 C 275.160 222.742,275.330 223.172,276.268 224.000 L 277.400 225.000 276.444 223.914 C 275.627 222.988,275.524 222.563,275.736 221.014 C 275.873 220.016,275.943 219.203,275.892 219.207 C 275.842 219.210,275.215 219.588,274.500 220.046 M128.600 221.200 C 129.459 222.080,130.252 222.800,130.362 222.800 C 130.472 222.800,129.859 222.080,129.000 221.200 C 128.141 220.320,127.348 219.600,127.238 219.600 C 127.128 219.600,127.741 220.320,128.600 221.200 M43.387 225.300 L 41.000 227.800 43.500 225.413 C 45.822 223.195,46.183 222.800,45.887 222.800 C 45.826 222.800,44.701 223.925,43.387 225.300 M103.700 225.887 C 104.305 225.978,105.295 225.978,105.900 225.887 C 106.505 225.795,106.010 225.720,104.800 225.720 C 103.590 225.720,103.095 225.795,103.700 225.887 M138.500 225.887 C 139.105 225.978,140.095 225.978,140.700 225.887 C 141.305 225.795,140.810 225.720,139.600 225.720 C 138.390 225.720,137.895 225.795,138.500 225.887 M174.105 225.887 C 174.714 225.979,175.614 225.977,176.105 225.882 C 176.597 225.787,176.100 225.711,175.000 225.714 C 173.900 225.717,173.497 225.795,174.105 225.887 M204.305 225.883 C 204.802 225.979,205.522 225.975,205.905 225.875 C 206.287 225.775,205.880 225.696,205.000 225.701 C 204.120 225.705,203.807 225.787,204.305 225.883 M279.200 226.150 C 279.200 226.244,279.841 226.699,280.624 227.161 C 281.407 227.623,281.936 227.820,281.799 227.598 C 281.531 227.164,279.200 225.866,279.200 226.150 M39.306 229.900 C 37.301 232.328,34.547 236.400,34.909 236.400 C 34.994 236.400,35.668 235.545,36.405 234.500 C 37.142 233.455,38.521 231.565,39.469 230.300 C 41.558 227.514,41.465 227.285,39.306 229.900 M50.581 239.300 L 49.000 241.000 50.700 239.419 C 52.281 237.948,52.584 237.600,52.281 237.600 C 52.216 237.600,51.451 238.365,50.581 239.300 M31.939 239.900 C 30.816 241.123,29.055 243.600,29.309 243.600 C 29.398 243.600,30.310 242.520,31.335 241.200 C 33.336 238.623,33.566 238.129,31.939 239.900 " stroke="none" fill="#6c4454" fill-rule="evenodd"></path></g></svg>
