<svg width="26" height="26" viewBox="0 0 26 26" fill="none" xmlns="http://www.w3.org/2000/svg">
    <rect width="26" height="26" rx="13" fill="#E24E4E"/>
    <path d="M16.8302 15.6517L14.3258 13.1473C14.2374 13.0589 14.2374 12.9411 14.3258 12.8527L16.8302 10.3484C17.0069 10.1716 17.0069 9.93589 16.8302 9.75912L16.2409 9.16986C16.0641 8.99308 15.8284 8.99308 15.6517 9.16986L13.1473 11.6742C13.0589 11.7626 12.9411 11.7626 12.8527 11.6742L10.3483 9.16986C10.1716 8.99308 9.93587 8.99308 9.75909 9.16986L9.16984 9.75912C8.99306 9.93589 8.99306 10.1716 9.16984 10.3484L11.6742 12.8527C11.7626 12.9411 11.7626 13.0589 11.6742 13.1473L9.16984 15.6517C8.99306 15.8284 8.99306 16.0642 9.16984 16.2409L9.75909 16.8302C9.93587 17.007 10.1716 17.007 10.3483 16.8302L12.8527 14.3258C12.9411 14.2375 13.0589 14.2375 13.1473 14.3258L15.6517 16.8302C15.8284 17.007 16.0641 17.007 16.2409 16.8302L16.8302 16.2409C17.0069 16.0642 17.0069 15.8284 16.8302 15.6517Z" fill="white"/>
</svg>
