<svg width="16" height="16" viewBox="0 0 16 16" fill="none" xmlns="http://www.w3.org/2000/svg">
<path d="M9.724 10.4541H11.2969V12.0483H9.724V10.4541Z" fill="#7BC0CC"/>
<path d="M12.5188 8.48145C12.0693 8.75391 11.55 8.90198 11.0126 8.90198C10.475 8.90198 9.95581 8.75391 9.50623 8.48145C9.05676 8.75391 8.53748 8.90198 8 8.90198C7.46252 8.90198 6.94324 8.75391 6.49377 8.48145C6.04431 8.75391 5.52515 8.90198 4.98755 8.90198C4.45007 8.90198 3.93079 8.75391 3.48132 8.48145C3.03174 8.75391 2.51257 8.90198 1.97498 8.90198C1.72668 8.90198 1.4856 8.87061 1.25537 8.81189V13.7717C1.25537 14.7223 2.02869 15.4957 2.97925 15.4957H3.76575V11.2614C3.76575 11.0024 3.97559 10.7926 4.2345 10.7926H6.74487C7.00378 10.7926 7.21362 11.0024 7.21362 11.2614V15.4957H13.021C13.9716 15.4957 14.7449 14.7223 14.7449 13.7717V8.81189C14.5145 8.87073 14.2733 8.90198 14.025 8.90198C13.4874 8.90198 12.9681 8.75391 12.5188 8.48145ZM12.2344 12.5166C12.2344 12.7754 12.0245 12.9854 11.7656 12.9854H9.25525C8.99634 12.9854 8.7865 12.7754 8.7865 12.5166V9.98486C8.7865 9.72607 8.99634 9.51611 9.25525 9.51611H11.7656C12.0245 9.51611 12.2344 9.72607 12.2344 9.98486V12.5166Z" fill="#7BC0CC"/>
<path d="M4.70312 11.7305H6.27612V15.4961H4.70312V11.7305Z" fill="#7BC0CC"/>
<path d="M3.01245 7.66895V4.95215H0V5.98962C0 7.07861 0.885986 7.9646 1.97498 7.9646C2.35547 7.9646 2.71082 7.8562 3.01245 7.66895Z" fill="#7BC0CC"/>
<path d="M15.3226 2.047C15.0747 1.17944 14.174 0.5 13.2719 0.5H2.72815C1.82605 0.5 0.925293 1.17944 0.677368 2.047L0.115112 4.01465H15.8848L15.3226 2.047Z" fill="#7BC0CC"/>
<path d="M4.98755 7.9646C5.36792 7.9646 5.72339 7.8562 6.02502 7.66895V4.95215H3.95007V7.66895C4.25171 7.8562 4.60706 7.9646 4.98755 7.9646Z" fill="#7BC0CC"/>
<path d="M12.9875 4.95215V7.66895C13.2892 7.85608 13.6445 7.9646 14.025 7.9646C15.114 7.9646 16 7.07861 16 5.98962V4.95215H12.9875Z" fill="#7BC0CC"/>
<path d="M8 7.9646C8.38049 7.9646 8.73584 7.8562 9.03748 7.66895V4.95215H6.96252V7.66895C7.26416 7.8562 7.61951 7.9646 8 7.9646Z" fill="#7BC0CC"/>
<path d="M11.0125 7.9646C11.3929 7.9646 11.7483 7.8562 12.0499 7.66895V4.95215H9.97498V7.66895C10.2766 7.8562 10.6321 7.9646 11.0125 7.9646Z" fill="#7BC0CC"/>
</svg>
