<svg width="20" height="20" viewBox="0 0 20 20" fill="none" xmlns="http://www.w3.org/2000/svg">

<path d="M15.7256 4.31909H11.9629V3.65502C11.9629 3.29384 11.6694 3 11.3088 3H8.68969C8.32902 3 8.03563 3.29384 8.03563 3.65502V4.31906H4.27282C4.09085 4.31906 3.94336 4.46655 3.94336 4.64853C3.94336 4.8305 4.09085 4.97799 4.27282 4.97799H4.88346L5.29986 15.8169C5.32534 16.4803 5.86535 17 6.52929 17H13.4692C14.1332 17 14.6732 16.4803 14.6986 15.8169L15.115 4.97796H15.7256C15.9076 4.97796 16.0551 4.83047 16.0551 4.6485C16.0551 4.46658 15.9076 4.31909 15.7256 4.31909ZM8.69453 3.6589H11.3039V4.31906H8.69453V3.6589ZM14.0402 15.7917C14.0284 16.0998 13.7776 16.3411 13.4692 16.3411H6.52929C6.22096 16.3411 5.97016 16.0997 5.95829 15.7916L5.54289 4.97799H14.4556L14.0402 15.7917Z" fill="#535151"/>
<path d="M7.99284 7.96472C7.98937 7.78494 7.84261 7.6416 7.66357 7.6416C7.66143 7.6416 7.65925 7.6416 7.65711 7.64166C7.47522 7.64516 7.33055 7.79549 7.33405 7.97738L7.43743 13.3541C7.44088 13.5339 7.58769 13.6772 7.76671 13.6772C7.76884 13.6772 7.77103 13.6772 7.77316 13.6772C7.95508 13.6737 8.09973 13.5234 8.09623 13.3414L7.99284 7.96472Z" fill="#535151"/>
<path d="M9.99939 7.6416C9.81744 7.6416 9.66992 7.78909 9.66992 7.97107V13.3478C9.66992 13.5297 9.81741 13.6772 9.99939 13.6772C10.1814 13.6772 10.3289 13.5297 10.3289 13.3478V7.97107C10.3289 7.78912 10.1814 7.6416 9.99939 7.6416Z" fill="#535151"/>
<path d="M12.3415 7.64168C12.1603 7.63766 12.0093 7.78283 12.0058 7.96475L11.9024 13.3415C11.8989 13.5234 12.0436 13.6737 12.2255 13.6772C12.2276 13.6772 12.2298 13.6772 12.2319 13.6772C12.4109 13.6772 12.5578 13.5339 12.5612 13.3541L12.6646 7.97741C12.6681 7.79546 12.5235 7.64516 12.3415 7.64168Z" fill="#535151"/>
</svg>
