<svg width="16" height="10" viewBox="0 0 16 10" fill="none" xmlns="http://www.w3.org/2000/svg">
    <path d="M13.8005 3.17458C10.5873 -0.0386624 5.35946 -0.0386624 2.14622 3.17458L0 5.32053L2.19946 7.51999C3.80595 9.12647 5.91621 9.92999 8.02676 9.92999C10.1373 9.92999 12.2473 9.12674 13.8541 7.51999L16.0003 5.37377L13.8005 3.17458ZM13.4716 7.13782C10.4692 10.14 5.58405 10.14 2.58162 7.13782L0.764324 5.32053L2.52838 3.55647C5.53081 0.554311 10.4159 0.554311 13.4184 3.55647L15.2357 5.37377L13.4716 7.13782Z" fill="#535151"/>
    <path d="M9.8997 3.177C8.85646 3.177 8.00781 4.02565 8.00781 5.06889C8.00781 5.21808 8.12889 5.33916 8.27808 5.33916C8.42727 5.33916 8.54835 5.21808 8.54835 5.06889C8.54835 4.32376 9.15457 3.71754 9.8997 3.71754C10.0489 3.71754 10.17 3.59646 10.17 3.44727C10.17 3.29808 10.0492 3.177 9.8997 3.177Z" fill="#535151"/>
    <path d="M8.00765 1.82568C6.07036 1.82568 4.49414 3.4019 4.49414 5.3392C4.49414 7.27649 6.07036 8.85271 8.00765 8.85271C9.94495 8.85271 11.5212 7.27649 11.5212 5.3392C11.5212 3.4019 9.94522 1.82568 8.00765 1.82568ZM8.00765 8.31217C6.36846 8.31217 5.03468 6.97839 5.03468 5.3392C5.03468 3.70001 6.36846 2.36622 8.00765 2.36622C9.64684 2.36622 10.9806 3.70001 10.9806 5.3392C10.9806 6.97839 9.64711 8.31217 8.00765 8.31217Z" fill="#535151"/>
</svg>
