<svg width="17" height="17" viewBox="0 0 17 17" fill="none" xmlns="http://www.w3.org/2000/svg">
    <path fill-rule="evenodd" clip-rule="evenodd" d="M2.50701 11.4619C-0.00118688 8.97632 -0.00118688 4.9464 2.50701 2.46082C5.0152 -0.0247554 9.08179 -0.0247562 11.59 2.46082C14.0982 4.9464 14.0982 8.97632 11.59 11.4619C9.08178 13.9475 5.0152 13.9475 2.50701 11.4619ZM2.11634 2.07368C-0.607611 4.77307 -0.607611 9.14966 2.11634 11.849C4.72421 14.4334 8.88334 14.5435 11.6234 12.1795L15.5281 16.0489L16.0732 15.5088L12.1764 11.6472C14.703 8.93569 14.6377 4.70678 11.9806 2.07368C9.25669 -0.625714 4.84029 -0.625713 2.11634 2.07368Z" fill="#030208"/>
</svg>
