<svg width="18" height="20" viewBox="0 0 18 20" fill="none" xmlns="http://www.w3.org/2000/svg">
    <path d="M15.2511 4.90762C14.9563 4.61282 14.4784 4.61282 14.1835 4.90762C13.8887 5.20241 13.8887 5.68028 14.1835 5.97508C15.5687 7.36028 16.3315 9.20201 16.3315 11.161C16.3315 13.1199 15.5687 14.9615 14.1835 16.3466C12.754 17.7762 10.8766 18.4909 8.9986 18.4907C7.12063 18.4906 5.24226 17.7757 3.81258 16.346C0.953709 13.4871 0.954011 8.83525 3.81308 5.97618C4.10787 5.68139 4.10787 5.20342 3.81308 4.90873C3.51829 4.61393 3.04042 4.61393 2.74552 4.90873C-0.70213 8.35638 -0.702431 13.9661 2.74502 17.4136C4.4693 19.1378 6.73385 19.9999 8.9987 19.9998C11.2629 19.9997 13.5275 19.1378 15.2512 17.4142C16.9214 15.744 17.8412 13.5233 17.8412 11.1611C17.8413 8.79882 16.9214 6.57795 15.2511 4.90762Z" fill="#C36CA1"/>
    <path d="M8.9974 9.77923C9.41438 9.77923 9.75225 9.44126 9.75225 9.02438V0.75485C9.75225 0.337971 9.41438 0 8.9974 0C8.58042 0 8.24255 0.337971 8.24255 0.75485V9.02438C8.24255 9.44136 8.58042 9.77923 8.9974 9.77923Z" fill="#C36CA1"/>
</svg>
