<svg width="26" height="26" viewBox="0 0 26 26" fill="none" xmlns="http://www.w3.org/2000/svg">
<path d="M25.9218 7.6402C25.8586 6.25641 25.6388 5.3114 25.3174 4.48462C24.9911 3.61717 24.4793 2.83145 23.818 2.18201C23.1687 1.52066 22.3828 1.00868 21.5154 0.682175C20.6884 0.361023 19.7436 0.141434 18.3598 0.0785522C16.9734 0.0150757 16.5305 0 13 0C9.46951 0 9.02657 0.0150757 7.6402 0.0781555C6.25641 0.141434 5.3116 0.361221 4.48462 0.682571C3.61717 1.00888 2.83145 1.52066 2.18201 2.18201C1.52066 2.83125 1.00868 3.61697 0.682175 4.48442C0.361023 5.3114 0.141434 6.25641 0.0785522 7.64C0.0150757 9.02657 0 9.46931 0 12.9998C0 16.5305 0.0150757 16.9734 0.0785522 18.3598C0.141632 19.7434 0.36142 20.6884 0.68277 21.5154C1.00908 22.3826 1.52086 23.1685 2.18221 23.8178C2.83145 24.4791 3.61737 24.9909 4.48482 25.3172C5.3116 25.6388 6.25661 25.8584 7.6404 25.9216C9.02696 25.9849 9.46971 25.9998 13.0002 25.9998C16.5307 25.9998 16.9736 25.9849 18.36 25.9216C19.7438 25.8584 20.6886 25.6388 21.5156 25.3172C23.2618 24.642 24.6422 23.2616 25.3174 21.5154C25.639 20.6884 25.8586 19.7434 25.9218 18.3598C25.9849 16.9732 26 16.5305 26 13C26 9.46931 25.9849 9.02657 25.9218 7.6402ZM23.5817 18.2533C23.524 19.5208 23.3122 20.2092 23.1342 20.6672C22.6968 21.801 21.8008 22.697 20.667 23.1344C20.209 23.3124 19.5206 23.5242 18.2531 23.5819C16.8826 23.6446 16.4714 23.6577 13 23.6577C9.52843 23.6577 9.11742 23.6446 7.74672 23.5819C6.47937 23.5242 5.79105 23.3124 5.33282 23.1344C4.76828 22.9259 4.25749 22.5937 3.83815 22.1618C3.40631 21.7425 3.07405 21.2319 2.86557 20.6672C2.68764 20.2092 2.47578 19.5208 2.41806 18.2533C2.35558 16.8826 2.34229 16.4714 2.34229 13.0002C2.34229 9.52882 2.35558 9.11781 2.41806 7.74692C2.47598 6.47937 2.68764 5.79105 2.86557 5.33302C3.07405 4.76828 3.40651 4.25749 3.83815 3.83815C4.25749 3.40631 4.76828 3.07405 5.33302 2.86577C5.79105 2.68764 6.47937 2.47598 7.74692 2.41806C9.11761 2.35558 9.52882 2.34229 13 2.34229H12.9998C16.471 2.34229 16.8822 2.35558 18.2531 2.41826C19.5206 2.47598 20.2088 2.68784 20.667 2.86577C21.2315 3.07425 21.7423 3.40651 22.1617 3.83815C22.5935 4.25749 22.9258 4.76828 23.134 5.33302C23.3122 5.79105 23.524 6.47937 23.5817 7.74692C23.6442 9.11761 23.6575 9.52882 23.6575 13C23.6575 16.4714 23.6444 16.8824 23.5817 18.2533Z" fill="url(#paint0_linear)"/>
<path d="M12.9998 6.32422C9.313 6.32422 6.32425 9.31317 6.32425 13C6.32425 16.6868 9.313 19.6755 12.9998 19.6755C16.6868 19.6755 19.6756 16.6868 19.6756 13C19.6756 9.31317 16.6868 6.32422 12.9998 6.32422ZM12.9998 17.3332C10.6067 17.333 8.66653 15.393 8.66673 12.9998C8.66673 10.6067 10.6067 8.6665 13 8.6665C15.3933 8.6667 17.3333 10.6067 17.3333 12.9998C17.3333 15.393 15.3931 17.3332 12.9998 17.3332Z" fill="url(#paint1_linear)"/>
<path d="M21.4993 6.06013C21.4993 6.92163 20.8009 7.62007 19.9394 7.62007C19.0777 7.62007 18.3792 6.92163 18.3792 6.06013C18.3792 5.19844 19.0777 4.5 19.9394 4.5C20.8009 4.5 21.4993 5.19844 21.4993 6.06013Z" fill="url(#paint2_linear)"/>
<defs>
<linearGradient id="paint0_linear" x1="2.18188" y1="23.8179" x2="23.8181" y2="2.18167" gradientUnits="userSpaceOnUse">
<stop stop-color="#FFD600"/>
<stop offset="0.5" stop-color="#FF0100"/>
<stop offset="1" stop-color="#D800B9"/>
</linearGradient>
<linearGradient id="paint1_linear" x1="8.27953" y1="17.7203" x2="17.7203" y2="8.27949" gradientUnits="userSpaceOnUse">
<stop stop-color="#FF6400"/>
<stop offset="0.5" stop-color="#FF0100"/>
<stop offset="1" stop-color="#FD0056"/>
</linearGradient>
<linearGradient id="paint2_linear" x1="18.8362" y1="7.1631" x2="21.0424" y2="4.95698" gradientUnits="userSpaceOnUse">
<stop stop-color="#F30072"/>
<stop offset="1" stop-color="#E50097"/>
</linearGradient>
</defs>
</svg>
