<svg width="26" height="26" viewBox="0 0 26 26" fill="none" xmlns="http://www.w3.org/2000/svg">
<rect width="26" height="26" rx="13" fill="#C36CA1"/>
<path d="M17.5833 12.1667H14.0417C13.9167 12.1667 13.8333 12.0833 13.8333 11.9583V8.41667C13.8333 8.16667 13.6667 8 13.4167 8H12.5833C12.3333 8 12.1667 8.16667 12.1667 8.41667V11.9583C12.1667 12.0833 12.0833 12.1667 11.9583 12.1667H8.41667C8.16667 12.1667 8 12.3333 8 12.5833V13.4167C8 13.6667 8.16667 13.8333 8.41667 13.8333H11.9583C12.0833 13.8333 12.1667 13.9167 12.1667 14.0417V17.5833C12.1667 17.8333 12.3333 18 12.5833 18H13.4167C13.6667 18 13.8333 17.8333 13.8333 17.5833V14.0417C13.8333 13.9167 13.9167 13.8333 14.0417 13.8333H17.5833C17.8333 13.8333 18 13.6667 18 13.4167V12.5833C18 12.3333 17.8333 12.1667 17.5833 12.1667Z" fill="white"/>
</svg>
