<svg width="120" height="120" viewBox="0 0 120 120" fill="none" xmlns="http://www.w3.org/2000/svg">
    <path d="M120 60C120 76.0266 113.759 91.0938 102.427 102.427C91.0938 113.759 76.0266 120 60 120C48.7807 120 38.0337 116.938 28.7067 111.215L35.5856 104.336C42.8302 108.341 51.1528 110.625 60 110.625C87.9148 110.625 110.625 87.9148 110.625 60C110.625 51.1528 108.341 42.8302 104.336 35.5859L111.215 28.707C116.938 38.0337 120 48.7807 120 60ZM6.83016 119.799L0.201094 113.17L14.3873 98.9836C5.0782 88.1262 0 74.4537 0 60C0 43.9734 6.24117 28.9062 17.5734 17.5734C28.9062 6.24117 43.9734 0 60 0C74.4537 0 88.1262 5.0782 98.9836 14.3873L113.17 0.201094L119.799 6.83016L6.83016 119.799ZM21.0593 92.3114L92.3114 21.0593C83.5385 13.767 72.273 9.375 60 9.375C32.0852 9.375 9.375 32.0852 9.375 60C9.375 72.273 13.7667 83.5385 21.0593 92.3114Z" fill="#C4C4C4"/>
</svg>
