<svg width="80" height="80" viewBox="0 0 80 80" fill="none" xmlns="http://www.w3.org/2000/svg">
<circle cx="40" cy="40" r="39" stroke="#030208" stroke-width="2"/>
<circle cx="40" cy="40" r="40" fill="#C36CA1"/>
<path d="M42.8809 44.3005C46.5903 41.8899 49.1012 37.9992 49.7699 33.6262C50.0781 31.6117 49.9898 29.5861 49.5078 27.6058L47.3291 18.6563C47.2355 18.2709 46.8904 18 46.4939 18H33.4868C33.0904 18 32.7456 18.2709 32.652 18.6563L30.4733 27.6058C29.9913 29.5861 29.903 31.6117 30.2108 33.6265C30.8795 37.9996 33.3905 41.8899 37.1002 44.3005L39.1312 45.6201V57.0283L32.4435 60.3718C32.087 60.5501 31.9 60.9502 31.9917 61.3379C32.0833 61.726 32.4294 61.9999 32.8279 61.9999H47.1529C47.5513 61.9999 47.8978 61.726 47.9891 61.3379C48.0807 60.9502 47.8938 60.5504 47.5372 60.3718L40.8499 57.0283V45.6201L42.8809 44.3005ZM34.1622 19.7187H45.8188L47.5792 26.9499H32.4019L34.1622 19.7187ZM31.9101 33.3663C31.6701 31.7966 31.7006 30.2195 32 28.6686H47.9807C48.2805 30.2195 48.311 31.7966 48.071 33.3663C47.4765 37.2557 45.2431 40.7157 41.9443 42.8594L39.9905 44.129L38.0368 42.8594C34.7376 40.7157 32.5046 37.2557 31.9101 33.3663ZM36.4685 60.2812L39.9905 58.5201L43.5126 60.2812H36.4685Z" fill="white"/>
<path d="M41.8679 40.5458C42.0706 40.5458 42.2741 40.4743 42.4376 40.3297C44.2896 38.6878 45.5786 36.5501 46.1658 34.1472C46.2786 33.6863 45.9962 33.221 45.535 33.1086C45.0738 32.9961 44.6088 33.2784 44.4964 33.7393C43.9925 35.8008 42.8864 37.635 41.2975 39.0433C40.9424 39.3582 40.9098 39.9013 41.2247 40.2565C41.3942 40.4482 41.6306 40.5458 41.8679 40.5458Z" fill="white"/>
<path d="M45.6196 31.5318C45.8456 31.5318 46.0671 31.4405 46.2272 31.2807C46.387 31.1202 46.479 30.8994 46.479 30.6724C46.479 30.4462 46.387 30.2246 46.2272 30.0648C46.0671 29.905 45.8456 29.813 45.6196 29.813C45.3934 29.813 45.1718 29.905 45.012 30.0648C44.8522 30.2246 44.7603 30.4462 44.7603 30.6724C44.7603 30.8994 44.8522 31.1202 45.012 31.2807C45.1718 31.4405 45.3934 31.5318 45.6196 31.5318Z" fill="white"/>
</svg>
