<svg width="40" height="40" viewBox="0 0 40 40" fill="none" xmlns="http://www.w3.org/2000/svg">
    <circle cx="20" cy="20" r="17" fill="#fff"/>
    <path d="M13.207 27.7974L13.207 27.7978L26.7983 28.0055L26.8705 28.0747C26.8705 28.0747 26.8705 28.0747 26.8705 28.0747C26.9422 28 26.9788 27.9 26.9743 27.7979L26.9743 27.7974L26.3545 14.7809L26.3545 14.7808C26.3447 14.5803 26.1794 14.4234 25.9791 14.4234H14.2022C14.0012 14.4234 13.8366 14.5804 13.8269 14.7808L13.8268 14.7809L13.207 27.7974ZM26.2048 27.4399H13.976L14.5598 15.1744H25.6209L26.2048 27.4399Z" fill="#030208" stroke="#030208" stroke-width="0.2"/>
    <path d="M22.6939 15.9008C22.6939 16.1081 22.862 16.2763 23.0693 16.2763C23.2773 16.2763 23.4448 16.108 23.4448 15.9008V13.1625C23.4448 11.3134 21.9405 9.80909 20.0913 9.80909C18.2422 9.80909 16.7379 11.3134 16.7379 13.1625V15.9008C16.7379 16.1081 16.9061 16.2763 17.1134 16.2763C17.3207 16.2763 17.4889 16.1081 17.4889 15.9008V13.1625C17.4889 11.7279 18.6562 10.5601 20.0913 10.5601C21.5264 10.5601 22.6939 11.7279 22.6939 13.1625V15.9008Z" fill="#030208" stroke="#030208" stroke-width="0.2"/>
</svg>
