<svg width="20" height="20" viewBox="0 0 20 20" fill="none" xmlns="http://www.w3.org/2000/svg">
<circle cx="10" cy="10" r="9.5" stroke="#030208"/>
<path d="M6.8 10.464C8.158 10.464 9.068 9.4 9.068 7.79C9.068 6.18 8.158 5.116 6.8 5.116C5.442 5.116 4.518 6.194 4.518 7.79C4.518 9.386 5.442 10.464 6.8 10.464ZM6.016 15H7.094L13.786 5.2H12.708L6.016 15ZM6.8 9.666C5.96 9.666 5.428 8.952 5.428 7.79C5.428 6.628 5.96 5.914 6.8 5.914C7.654 5.914 8.172 6.614 8.172 7.79C8.172 8.966 7.654 9.666 6.8 9.666ZM13.002 15.084C14.36 15.084 15.284 14.006 15.284 12.41C15.284 10.814 14.36 9.736 13.002 9.736C11.644 9.736 10.734 10.814 10.734 12.41C10.734 14.006 11.644 15.084 13.002 15.084ZM13.002 14.286C12.148 14.286 11.63 13.586 11.63 12.41C11.63 11.234 12.148 10.534 13.002 10.534C13.842 10.534 14.374 11.248 14.374 12.41C14.374 13.572 13.842 14.286 13.002 14.286Z" fill="#030208"/>
</svg>
