<svg width="20" height="20" viewBox="0 0 20 20" fill="none" xmlns="http://www.w3.org/2000/svg">
<path d="M9.44978 19.8319L6.15836 16.5493C5.94887 16.3405 5.94887 16.002 6.15836 15.7933C6.36765 15.5845 6.70711 15.5845 6.91639 15.7933L9.8288 18.6978L12.7411 15.7933C12.9505 15.5846 13.2899 15.5846 13.4992 15.7933C13.7086 16.0021 13.7086 16.3406 13.4992 16.5494L10.2077 19.832C10.103 19.9363 9.96596 19.9885 9.82882 19.9885C9.69161 19.9885 9.55443 19.9362 9.44978 19.8319Z" fill="#030208"/>
<path d="M9.60396 0.156642L6.16419 3.44817C5.94527 3.65755 5.94527 3.99703 6.16419 4.20631C6.38292 4.41561 6.73768 4.41561 6.95639 4.20631L10.0001 1.29381L13.0436 4.20622C13.2624 4.41552 13.6172 4.41552 13.8359 4.20622C14.0547 3.99693 14.0547 3.65747 13.8359 3.44809L10.3961 0.156558C10.2867 0.0519094 10.1434 -0.000355244 10.0001 -0.000355244C9.85668 -0.000355244 9.71332 0.052011 9.60396 0.156642Z" fill="#030208"/>
</svg>
