<svg width="20" height="20" viewBox="0 0 20 20" fill="none" xmlns="http://www.w3.org/2000/svg">
    <path d="M2.85718 5C4.11396 5 5.15432 4.06643 5.32861 2.85714H19.2857C19.4832 2.85714 19.6429 2.6975 19.6429 2.5C19.6429 2.3025 19.4832 2.14286 19.2857 2.14286H5.32861C5.15432 0.933571 4.11396 0 2.85718 0C1.47861 0 0.357178 1.12179 0.357178 2.5C0.357178 3.87821 1.47861 5 2.85718 5ZM2.85718 0.714286C3.84182 0.714286 4.64289 1.51536 4.64289 2.5C4.64289 3.48464 3.84182 4.28571 2.85718 4.28571C1.87253 4.28571 1.07146 3.48464 1.07146 2.5C1.07146 1.51536 1.87253 0.714286 2.85718 0.714286Z" fill="black"/>
    <path d="M17.1429 15C15.8861 15 14.8457 15.9336 14.6715 17.1429H0.714321C0.517178 17.1429 0.357178 17.3025 0.357178 17.5C0.357178 17.6975 0.517178 17.8571 0.714321 17.8571H14.6715C14.8457 19.0664 15.8861 20 17.1429 20C18.5211 20 19.6429 18.8782 19.6429 17.5C19.6429 16.1218 18.5211 15 17.1429 15ZM17.1429 19.2857C16.1582 19.2857 15.3572 18.4846 15.3572 17.5C15.3572 16.5154 16.1582 15.7143 17.1429 15.7143C18.1275 15.7143 18.9286 16.5154 18.9286 17.5C18.9286 18.4846 18.1275 19.2857 17.1429 19.2857Z" fill="black"/>
    <path d="M19.2857 9.64325H12.6315C12.49 8.35683 11.3975 7.35254 10.074 7.35254C8.75039 7.35254 7.65789 8.35718 7.51646 9.64325H0.714321C0.517178 9.64325 0.357178 9.8029 0.357178 10.0004C0.357178 10.1979 0.517178 10.3575 0.714321 10.3575H7.53896C7.74503 11.5718 8.80182 12.5004 10.074 12.5004C11.3461 12.5004 12.4025 11.5718 12.6086 10.3575H19.2857C19.4832 10.3575 19.6429 10.1979 19.6429 10.0004C19.6429 9.8029 19.4832 9.64325 19.2857 9.64325ZM10.074 11.7861C9.04861 11.7861 8.21432 10.9518 8.21432 9.92647C8.21432 8.90111 9.04861 8.06683 10.074 8.06683C11.0993 8.06683 11.9336 8.90111 11.9336 9.92647C11.9336 10.9518 11.0993 11.7861 10.074 11.7861Z" fill="black"/>
</svg>
