<svg width="14" height="14" viewBox="0 0 14 14" fill="none" xmlns="http://www.w3.org/2000/svg">
    <path fill-rule="evenodd" clip-rule="evenodd" d="M8.7107 0.904787C9.91411 -0.301596 11.8711 -0.301596 13.0745 0.904787C13.6584 1.48564 13.9801 2.26011 13.9801 3.08521C13.9801 3.91032 13.6584 4.68479 13.0745 5.26862L5.07368 13.2665C4.99921 13.3439 4.89496 13.3856 4.7907 13.3856C4.68645 13.3856 4.58219 13.341 4.50772 13.2665L1.28474 10.0435L0.870701 13.1056L2.99155 12.8197C3.21198 12.7899 3.41453 12.9448 3.44432 13.1652C3.47411 13.3856 3.31921 13.5882 3.09879 13.618L0.45368 13.9754C0.435808 13.9784 0.417935 13.9784 0.400063 13.9784C0.295808 13.9784 0.191552 13.9337 0.117084 13.8593C0.0307014 13.7729 -0.0139795 13.6478 0.00389286 13.5227L0.596659 9.13202C0.608574 9.04564 0.647297 8.96521 0.70985 8.90266L8.7107 0.904787ZM10.209 3.23117L8.86559 1.88777L1.56474 9.18862L2.90815 10.532L10.209 3.23117ZM4.79368 12.4146L3.48006 11.101L10.7809 3.80011L12.0945 5.11372L4.79368 12.4146ZM9.44049 1.32479L12.6545 4.53883C12.9911 4.13074 13.1758 3.62436 13.1758 3.08521C13.1758 2.47457 12.9405 1.89968 12.5086 1.47074C12.0767 1.04181 11.5047 0.803511 10.8941 0.803511C10.3579 0.803511 9.84857 0.988191 9.44049 1.32479Z" fill="#535151"/>
</svg>
