<svg width="15" height="26" viewBox="0 0 15 26" fill="none" xmlns="http://www.w3.org/2000/svg">
<path d="M13.5276 0.00540974L10.156 0C6.36807 0 3.92016 2.51147 3.92016 6.39863V9.34883H0.530154C0.237217 9.34883 0 9.58632 0 9.87926V14.1538C0 14.4467 0.237488 14.6839 0.530154 14.6839H3.92016V25.4698C3.92016 25.7628 4.15738 26 4.45032 26H8.87332C9.16626 26 9.40347 25.7625 9.40347 25.4698V14.6839H13.3672C13.6601 14.6839 13.8973 14.4467 13.8973 14.1538L13.899 9.87926C13.899 9.73861 13.843 9.6039 13.7437 9.50436C13.6444 9.40483 13.5092 9.34883 13.3685 9.34883H9.40347V6.84791C9.40347 5.64587 9.68992 5.03565 11.2558 5.03565L13.527 5.03484C13.8197 5.03484 14.0569 4.79735 14.0569 4.50469V0.535564C14.0569 0.243168 13.82 0.00595071 13.5276 0.00540974Z" fill="#6C8FC3"/>
</svg>
